<?xml version="1.0" standalone="no"?>
<!DOCTYPE svg PUBLIC "-//W3C//DTD SVG 20010904//EN"
 "http://www.w3.org/TR/2001/REC-SVG-20010904/DTD/svg10.dtd">
<svg version="1.0" xmlns="http://www.w3.org/2000/svg"
 width="1024.000000pt" height="1024.000000pt" viewBox="0 0 1024.000000 1024.000000"
 preserveAspectRatio="xMidYMid meet">

<g transform="translate(0.000000,1024.000000) scale(0.100000,-0.100000)"
fill="#000000" stroke="none">
<path d="M4845 9581 c-185 -12 -223 -43 -210 -171 l7 -68 -54 -6 c-29 -3 -75
-7 -102 -9 l-50 -2 -18 60 c-23 76 -71 125 -123 125 -46 0 -324 -60 -440 -95
-49 -15 -121 -36 -159 -47 -77 -21 -116 -45 -133 -80 -12 -23 -46 -126 -127
-388 -25 -80 -74 -239 -110 -355 -135 -439 -263 -868 -286 -961 -22 -89 5
-155 85 -204 19 -12 32 -27 29 -34 -5 -13 -56 -46 -72 -46 -20 0 -105 95 -125
139 -36 80 -28 143 50 406 142 479 239 799 322 1060 27 83 47 152 45 154 -12
13 -394 -169 -564 -269 -287 -168 -549 -365 -809 -608 l-63 -60 -57 25 c-72
33 -146 53 -193 53 -30 0 -42 -6 -59 -30 -12 -16 -25 -28 -28 -26 -3 2 -102
20 -219 41 -235 39 -272 38 -294 -11 -23 -49 -4 -63 228 -168 121 -55 226
-105 235 -113 8 -7 20 -13 26 -13 6 0 16 -6 22 -14 10 -11 8 -16 -6 -20 -10
-4 -38 -24 -61 -46 -42 -38 -82 -55 -66 -27 6 9 5 9 -7 0 -8 -6 -56 -13 -106
-15 -78 -2 -96 -6 -114 -24 -20 -20 -20 -23 -5 -52 9 -17 32 -44 52 -60 28
-23 35 -35 29 -51 -3 -12 -10 -19 -15 -16 -4 3 -14 -3 -21 -12 -13 -15 -11
-16 11 -10 14 4 28 7 33 7 4 0 7 9 7 21 l0 20 26 -20 c18 -14 41 -21 70 -21
24 0 44 -2 44 -5 0 -3 -16 -31 -35 -61 -77 -120 -205 -335 -205 -344 0 -6 -4
-10 -10 -10 -5 0 -10 -4 -10 -10 0 -5 -21 -54 -46 -107 -26 -54 -54 -117 -64
-140 -10 -22 -27 -43 -37 -46 -46 -13 -112 -17 -136 -8 -14 6 -29 6 -31 2 -6
-10 50 -91 62 -91 18 0 7 29 -15 39 -13 6 -23 19 -23 28 1 17 1 17 11 1 5 -10
14 -18 19 -18 16 0 100 -63 100 -74 0 -8 -3 -8 -8 -1 -7 11 -58 45 -66 45 -12
0 7 -30 23 -35 9 -2 21 -15 26 -27 6 -13 17 -22 24 -20 13 3 51 -34 51 -49 0
-4 -4 -10 -9 -13 -17 -11 -62 -170 -57 -204 2 -18 1 -30 -2 -27 -8 8 -32 -73
-32 -106 0 -15 9 -38 20 -52 34 -43 120 -48 120 -7 0 17 6 26 45 58 8 7 15 23
15 36 0 13 7 26 15 30 8 3 12 12 9 21 -4 8 0 17 9 21 9 3 14 11 11 19 -3 7 4
15 15 18 13 3 21 14 22 29 1 17 4 13 13 -16 9 -29 14 -35 19 -23 3 9 2 19 -3
22 -6 4 -10 16 -10 27 0 12 2 19 5 16 7 -7 42 -98 61 -159 l14 -46 45 2 c25 1
49 6 53 10 4 4 -3 5 -15 2 -13 -3 -23 -2 -23 3 0 13 57 32 77 26 10 -3 45 7
77 22 l59 28 51 -25 c27 -14 56 -32 64 -38 7 -7 34 -25 58 -39 52 -30 73 -25
109 25 19 28 87 113 126 159 11 13 17 28 13 35 -4 7 -4 9 1 5 8 -7 55 40 55
55 0 4 6 7 13 7 17 1 100 117 92 130 -3 5 -1 10 4 10 17 0 52 40 46 50 -3 5 1
7 9 4 9 -3 19 3 27 18 6 13 19 31 27 41 19 21 26 57 12 57 -6 0 -10 -5 -10
-12 0 -6 -3 -8 -7 -5 -9 10 116 174 152 199 20 15 -5 18 -66 8 -35 -5 -122
-19 -194 -30 -206 -33 -338 -50 -344 -45 -2 3 3 5 12 5 15 0 23 23 18 52 0 4
5 5 13 2 7 -3 16 2 19 10 5 11 0 16 -13 16 -11 0 -20 5 -20 10 0 6 18 10 40
10 57 0 55 27 -3 33 l-42 4 43 1 c44 2 59 20 20 24 -13 1 78 5 202 8 l225 6
-315 2 c-267 2 -319 4 -338 18 -59 41 6 124 97 124 23 0 41 4 41 9 0 5 24 27
54 49 49 37 58 40 107 38 59 -3 109 -25 145 -63 18 -20 33 -25 82 -26 48 -2
56 0 43 10 -19 15 -50 16 -71 3 -9 -6 -17 -5 -22 3 -9 15 10 37 31 36 10 0 7
-4 -8 -10 -36 -14 -20 -20 30 -10 24 5 36 9 27 10 -10 1 -18 6 -18 11 0 6 -7
10 -15 10 -8 0 -15 5 -15 10 0 6 5 10 10 10 6 0 10 7 10 15 0 8 -4 15 -10 15
-5 0 -10 9 -10 20 0 11 7 20 15 20 23 0 21 70 -2 71 -14 0 -15 2 -3 6 8 3 18
11 23 17 5 8 9 8 15 0 5 -9 11 -8 20 2 7 8 8 14 2 14 -5 0 -10 4 -10 9 0 5 10
7 23 4 21 -4 21 -4 -3 12 -15 10 -17 14 -7 11 10 -3 48 -14 84 -23 l65 -18 29
33 c34 38 36 65 8 112 -12 19 -15 29 -8 23 18 -18 30 -16 23 2 -4 8 -1 15 5
15 6 0 11 -5 11 -12 0 -6 3 -8 6 -5 4 4 1 14 -6 22 -11 13 -15 13 -21 3 -7
-10 -11 -10 -23 2 -14 13 -12 15 17 15 22 -1 43 9 70 32 30 27 45 33 82 33 25
0 45 5 45 10 0 6 18 10 40 10 22 0 40 -4 40 -10 0 -5 18 -10 39 -10 29 0 41
-5 44 -17 4 -17 5 -17 6 0 0 9 6 17 12 17 6 0 8 7 5 16 -4 10 -2 14 6 11 7 -2
12 -9 11 -15 -7 -30 -12 -95 -7 -82 20 53 73 167 74 159 0 -8 -27 -87 -39
-114 -5 -11 -12 -31 -15 -45 -3 -14 -13 -57 -23 -97 -17 -68 -19 -72 -43 -67
-24 4 -24 4 -2 -5 12 -6 22 -15 22 -21 0 -6 -10 -15 -22 -21 l-23 -10 23 5
c18 3 23 -1 27 -22 19 -94 39 -137 81 -177 24 -24 44 -44 44 -47 0 -2 -14 -5
-32 -6 -18 -2 -34 -5 -36 -7 -11 -10 97 -190 125 -207 6 -5 9 -17 6 -29 -11
-41 107 -139 203 -169 l41 -12 12 -82 c11 -71 10 -86 -4 -120 -25 -58 -21
-199 6 -272 25 -65 83 -134 134 -158 19 -9 40 -27 46 -39 11 -20 72 -96 122
-152 10 -11 33 -48 52 -82 61 -109 106 -131 241 -119 41 3 74 2 74 -2 0 -24
-235 -121 -350 -146 -39 -8 -115 -63 -141 -101 -13 -19 -28 -36 -34 -39 -6 -2
-9 42 -7 125 l3 129 -154 0 -155 0 -7 -292 c-4 -161 -5 -324 -3 -361 4 -67 3
-68 -19 -62 -13 3 -23 1 -23 -5 0 -5 -4 -10 -10 -10 -6 0 -11 76 -12 193 l-3
192 -95 3 -95 3 -1 -58 c-2 -83 -15 -195 -26 -217 -8 -15 -18 -17 -54 -13 -38
4 -44 2 -44 -14 0 -11 -5 -19 -10 -19 -7 0 -10 77 -8 232 l2 233 -42 3 c-24 1
-42 -2 -42 -8 0 -5 -13 -10 -30 -10 l-30 0 0 -142 c0 -79 -5 -150 -10 -158 -6
-10 -10 -11 -10 -2 0 6 -6 12 -12 12 -16 0 -23 -151 -9 -195 8 -25 9 -26 10
-7 2 40 21 23 21 -18 0 -36 -2 -40 -25 -40 l-25 0 0 119 c0 129 -1 131 -60
131 -20 0 -29 -6 -33 -21 -5 -17 -11 -20 -31 -17 -24 5 -31 -3 -28 -33 1 -3
-10 -4 -23 -1 -15 2 -25 0 -25 -7 0 -6 8 -11 18 -12 32 -1 -20 -18 -58 -18
l-35 0 28 15 c34 18 35 26 2 18 -19 -5 -25 -2 -25 11 0 9 3 14 8 12 7 -5 5
277 -3 299 -2 7 -61 12 -179 13 l-176 2 0 -93 c-1 -79 -3 -90 -14 -75 -10 13
-28 17 -80 17 l-66 0 0 173 c0 275 -8 287 -197 287 l-119 0 -40 58 -39 57
-140 5 c-77 3 -124 7 -105 10 27 4 36 10 38 27 4 25 -6 29 -98 36 -67 6 -114
31 -137 74 -13 25 -23 32 -40 28 -13 -2 -21 0 -18 6 4 5 10 7 15 4 11 -7 20
20 20 61 0 19 6 48 14 63 12 23 12 28 1 28 -7 0 -11 -6 -8 -14 7 -18 -2 -17
-21 3 -9 8 -16 11 -16 5 0 -6 -7 -11 -15 -11 -8 0 -15 -5 -15 -11 0 -8 -6 -7
-17 2 -14 12 -15 12 -9 1 7 -11 4 -12 -13 -3 -11 7 -21 14 -21 17 0 3 4 2 10
-1 15 -9 12 4 -4 20 -7 8 -16 11 -20 8 -3 -4 -6 5 -6 18 -1 28 -29 84 -30 58
0 -9 -9 -45 -20 -80 -11 -35 -18 -69 -15 -77 2 -7 1 -11 -4 -7 -12 7 -25 -70
-15 -87 4 -7 3 -9 -2 -5 -22 21 -93 -407 -101 -616 l-6 -147 -58 -26 c-71 -32
-149 -110 -149 -150 0 -38 32 -85 98 -145 35 -31 52 -53 44 -56 -25 -10 -109
-82 -141 -121 -58 -75 -61 -122 -9 -174 19 -19 24 -38 29 -105 15 -188 145
-323 312 -323 62 0 64 -1 109 -47 51 -52 57 -64 92 -189 l24 -84 -52 0 c-28 0
-106 5 -174 12 -67 6 -124 9 -126 7 -3 -3 35 -128 83 -279 80 -247 107 -328
194 -563 l25 -69 -38 -101 c-80 -213 -142 -388 -139 -391 56 -44 428 -242 579
-309 l56 -24 48 -204 c27 -116 58 -221 71 -244 27 -47 69 -80 127 -101 78 -27
133 -19 425 68 l172 51 58 -50 c32 -27 103 -83 158 -125 626 -469 1285 -751
2030 -868 266 -41 413 -52 690 -52 699 0 1343 151 1960 457 329 164 542 297
801 501 80 63 154 120 164 126 14 9 52 0 181 -40 90 -28 193 -58 229 -67 121
-31 234 -6 295 67 38 45 45 65 100 284 l47 190 232 117 c199 100 297 153 392
213 l22 13 -53 148 c-29 81 -69 192 -88 246 l-36 98 63 172 c56 150 102 289
217 651 l28 89 -57 -6 c-31 -3 -105 -9 -163 -13 l-106 -7 31 93 31 93 60 13
c96 19 169 52 220 96 77 68 81 86 76 377 -1 83 -6 133 -16 151 -19 36 -74 84
-124 106 l-40 17 6 184 c4 124 3 183 -4 183 -6 0 -14 -10 -17 -22 l-6 -23 -15
25 c-8 14 -14 19 -15 12 0 -7 -16 -22 -36 -34 -23 -14 -33 -26 -29 -36 3 -8
-3 -21 -15 -29 -11 -8 -20 -23 -20 -34 0 -14 -7 -19 -25 -19 -26 0 -26 0 -29
-69 -3 -48 -20 -49 -34 -4 l-11 38 5 -35 c2 -19 12 -41 22 -49 15 -12 15 -12
-5 -6 -17 4 -23 2 -23 -9 0 -10 9 -14 34 -11 18 1 40 -1 47 -6 9 -5 -9 -9 -49
-9 -56 0 -63 2 -58 18 2 9 12 71 21 137 9 66 25 179 36 252 27 188 28 181 -28
188 -128 16 -118 11 -119 58 0 23 -5 70 -12 105 -34 175 -39 262 -34 527 l2
130 35 -58 c19 -32 43 -77 54 -100 11 -23 41 -64 67 -92 26 -27 63 -74 82
-103 19 -29 40 -51 46 -49 6 2 16 23 22 48 l12 44 26 -58 c14 -32 33 -86 42
-120 9 -34 18 -68 20 -76 7 -22 52 46 69 103 41 137 -10 289 -140 418 -33 33
-78 67 -99 75 -33 14 -36 18 -20 24 10 3 23 4 28 1 5 -3 34 -7 63 -9 55 -4 68
7 41 37 -8 8 -1 6 15 -4 16 -10 52 -19 80 -21 29 -1 62 -6 75 -10 34 -11 28
15 -18 76 -103 137 -281 175 -420 90 l-48 -30 5 39 c7 52 -13 105 -57 154 -20
23 -43 57 -50 76 -27 67 -67 139 -75 132 -5 -4 -5 -2 -1 5 8 14 -85 202 -166
338 -41 68 -60 91 -79 94 -13 2 -319 -1 -679 -5 -650 -8 -653 -9 -347 -15 282
-7 310 -9 323 -26 9 -10 13 -12 9 -5 -4 7 0 12 9 12 9 0 14 -8 13 -20 -1 -15
-6 -19 -22 -14 -11 3 -5 -4 13 -15 49 -31 57 -27 54 29 0 11 4 9 13 -5 8 -11
19 -25 24 -32 8 -8 5 -13 -7 -17 -9 -3 -1 -4 19 -3 30 2 35 0 31 -15 -3 -11 4
-26 17 -37 16 -14 18 -21 9 -24 -7 -3 -3 -6 10 -6 13 -1 21 -5 18 -10 -3 -4 1
-17 9 -27 8 -10 15 -28 15 -40 0 -15 14 -26 52 -42 57 -24 76 -23 31 2 l-28
16 29 -6 c19 -5 31 -2 37 7 4 7 11 10 16 6 4 -5 1 -12 -7 -18 -13 -8 -13 -10
0 -19 11 -7 17 -5 22 8 5 14 7 13 7 -5 1 -14 11 -25 29 -32 l27 -11 -27 3
c-16 3 -29 -1 -32 -9 -3 -7 0 -11 7 -9 36 11 77 13 77 5 0 -6 -8 -10 -17 -11
-10 -1 -1 -6 20 -11 20 -6 37 -16 37 -23 0 -7 7 -18 15 -25 8 -7 15 -18 15
-24 0 -6 -9 0 -20 14 -10 14 -21 22 -24 20 -2 -3 4 -16 14 -30 17 -23 20 -23
37 -8 12 10 24 13 38 8 11 -5 44 -9 73 -9 45 -1 52 -4 52 -21 0 -11 4 -20 10
-20 12 0 31 35 23 44 -3 3 6 6 20 6 22 0 27 -5 27 -23 0 -13 7 -32 16 -43 12
-15 15 -15 10 -2 -2 9 2 19 10 22 10 4 12 2 8 -6 -4 -7 -3 -8 4 -4 6 4 9 13 6
20 -3 8 3 16 14 19 15 3 21 -1 25 -19 4 -24 -7 -33 -16 -14 -3 6 -4 5 -3 -2 1
-7 13 -16 27 -20 16 -5 13 -6 -13 -2 -47 6 -54 -7 -24 -43 13 -16 28 -44 33
-63 8 -30 15 -36 44 -41 34 -5 34 -6 7 -13 -25 -7 -26 -10 -15 -39 6 -18 20
-40 31 -50 20 -18 20 -18 -9 0 -38 23 -60 43 -46 43 6 0 11 4 11 10 0 5 -7 7
-16 3 -12 -4 -14 0 -9 23 4 23 3 25 -4 9 -16 -33 -12 -45 22 -77 22 -21 26
-28 12 -23 -11 4 -31 10 -43 13 -17 3 -20 7 -11 13 8 4 10 11 6 15 -3 4 -12 2
-19 -3 -7 -6 -51 -13 -98 -15 -104 -5 -163 -31 -235 -103 -53 -52 -98 -134
-93 -166 3 -17 5 -17 33 -4 17 8 63 25 103 38 67 22 72 22 66 5 -8 -28 54 -24
99 6 28 19 37 21 41 11 6 -16 51 -13 88 5 12 7 2 -7 -24 -29 -113 -99 -138
-227 -67 -335 17 -25 37 -46 44 -46 15 0 25 31 25 77 0 28 3 32 23 30 18 -2
23 4 25 29 3 26 7 32 29 32 26 0 62 34 63 59 0 7 9 27 19 44 l19 32 -4 -44
c-3 -24 -12 -84 -20 -133 -15 -98 -19 -446 -5 -507 l8 -35 -61 3 c-90 6 -106
11 -106 33 0 28 -20 25 -21 -2 -1 -16 -4 -12 -11 13 -7 29 -4 53 16 125 33
113 33 154 1 193 -27 32 -46 39 -165 66 -41 9 -141 34 -223 56 -186 50 -210
51 -247 13 -29 -29 -41 -66 -110 -329 -10 -38 -23 -81 -29 -95 l-10 -25 0 28
c-2 66 -67 147 -119 147 -17 0 -22 6 -22 25 0 95 -128 160 -341 172 -180 10
-342 -25 -416 -90 l-35 -31 5 -136 c4 -98 11 -153 26 -200 11 -36 21 -66 21
-67 0 -1 -24 -9 -52 -19 -101 -33 -148 -68 -148 -111 0 -13 -9 -37 -21 -52
-15 -21 -21 -43 -21 -80 1 -28 4 -56 7 -61 10 -17 -5 -49 -23 -49 -43 -2 -53
-5 -48 -18 13 -34 -7 -3 -80 123 -43 75 -105 168 -136 205 -41 49 -58 77 -58
98 0 16 -7 48 -15 71 -8 23 -15 44 -15 45 0 2 17 13 38 25 37 22 37 22 18 1
-33 -37 -11 -33 45 8 30 22 65 56 79 77 l25 37 6 -32 c15 -71 114 -140 202
-141 49 0 64 14 24 24 -12 3 -36 19 -52 36 -51 54 -40 100 55 224 63 82 63
158 -1 296 -39 85 -36 104 31 225 66 117 80 160 80 249 0 180 -96 343 -293
495 -56 44 -120 98 -142 120 l-40 41 60 -20 c32 -11 87 -25 122 -30 167 -27
320 82 337 240 l5 45 -17 -53 c-51 -161 -211 -229 -398 -169 -44 13 -106 30
-139 37 -81 16 -152 37 -260 75 -120 44 -217 58 -362 54 -67 -2 -116 -1 -110
3 18 11 -45 21 -263 44 -217 22 -646 29 -859 15 l-174 -12 -23 28 -22 28 31 7
c85 18 416 30 665 25 339 -7 648 -36 937 -86 146 -26 498 -105 606 -137 57
-16 97 -23 115 -18 59 14 103 44 129 88 l25 43 -15 264 c-21 378 -22 384 -69
414 -13 9 -104 37 -201 64 -149 40 -180 51 -186 69 -16 44 -22 438 -9 693 15
331 17 326 -163 374 -138 37 -462 103 -544 111 l-72 7 -35 -35 c-24 -24 -40
-54 -52 -97 -20 -70 -11 -67 -171 -54 l-83 6 3 78 c2 84 -14 121 -64 146 -31
15 -427 24 -594 14z m512 -105 c0 0 -5 -179 -13 -396 -7 -217 -13 -459 -14
-537 l0 -141 63 -6 c34 -3 132 -10 217 -16 85 -6 159 -15 163 -19 5 -5 5 -101
1 -215 -7 -201 -7 -206 -28 -206 -12 0 -102 7 -201 15 -99 8 -307 15 -461 15
l-282 0 -6 23 c-3 12 -6 69 -6 127 0 139 -27 860 -41 1128 -7 117 -9 216 -5
220 13 12 212 19 416 14 107 -3 196 -5 197 -6z m758 -91 c105 -19 233 -46 285
-59 79 -20 95 -27 93 -42 -1 -11 -5 -247 -9 -525 l-7 -506 94 -22 c52 -12 157
-39 234 -60 l140 -39 3 -220 2 -221 -47 15 c-189 59 -598 151 -848 190 -60 10
-113 20 -117 23 -3 3 -11 177 -18 386 -6 209 -18 524 -25 700 -8 176 -15 344
-15 373 0 49 1 52 23 47 12 -3 108 -21 212 -40z m-1728 -320 c128 -436 151
-519 209 -725 25 -91 59 -206 75 -255 16 -50 29 -97 29 -106 0 -13 -22 -18
-117 -28 -65 -7 -183 -21 -263 -31 -80 -10 -146 -17 -148 -16 -1 2 -14 62 -29
134 l-27 132 -40 -7 c-23 -3 -97 -18 -166 -32 l-124 -27 -28 -143 c-15 -79
-31 -147 -35 -151 -4 -4 -65 -21 -135 -39 -69 -18 -189 -52 -265 -76 -76 -25
-141 -45 -144 -45 -4 0 11 57 31 128 21 70 59 204 85 297 26 94 62 222 81 285
162 552 269 899 281 911 23 22 556 151 608 146 16 -2 34 -52 122 -352z m-1437
-527 c44 -48 9 -128 -56 -128 -62 0 -98 86 -54 130 27 27 83 27 110 -2z m-428
-247 c14 -13 -35 -91 -84 -136 -77 -69 -397 -289 -488 -335 -25 -12 -56 -31
-70 -40 -56 -39 -232 -130 -301 -155 -40 -14 -94 -26 -120 -27 -40 0 -56 7
-110 46 -35 26 -64 52 -64 59 0 18 60 20 143 6 72 -12 73 -12 100 14 23 22
114 95 301 242 28 21 49 41 46 43 -2 2 -32 -12 -68 -32 -63 -36 -94 -45 -82
-26 3 6 0 10 -8 10 -8 0 -19 6 -25 13 -18 21 -109 7 -96 -15 5 -8 1 -9 -10 -5
-10 4 -29 10 -42 13 -13 3 -24 10 -24 15 0 5 -3 8 -7 7 -11 -3 -81 21 -123 43
-19 9 -86 38 -148 64 -94 40 -110 50 -100 62 9 11 25 13 67 8 69 -8 670 -121
691 -129 10 -4 68 31 160 95 80 56 173 115 207 131 83 39 225 56 255 29z
m-714 -168 c29 -14 52 -27 49 -29 -5 -5 -171 31 -187 41 -9 6 -9 10 1 16 20
12 75 1 137 -28z m991 8 c35 -32 38 -41 16 -41 -9 0 -15 -9 -15 -23 0 -20 -5
-23 -35 -23 -27 0 -35 4 -35 18 0 9 -8 22 -17 27 -16 10 -14 14 17 41 19 16
36 30 36 30 1 0 16 -13 33 -29z m-546 -288 c31 -27 95 -79 141 -118 47 -38 84
-76 83 -84 -3 -19 -27 -27 -27 -9 0 19 -67 61 -85 54 -8 -3 -15 -1 -15 4 0 6
6 10 13 11 6 0 2 4 -10 9 -13 5 -23 14 -23 20 0 5 -7 10 -16 10 -13 0 -11 -4
7 -18 18 -15 20 -20 8 -27 -8 -5 -11 -5 -7 -1 4 5 -19 21 -50 37 -31 16 -79
49 -106 72 l-48 44 28 21 c16 12 34 22 39 22 6 0 36 -21 68 -47z m139 2 c-6
-34 -14 -37 -42 -18 -22 15 -22 17 -5 30 31 22 53 17 47 -12z m60 -47 c-8 -8
-9 -4 -5 13 4 13 8 18 11 10 2 -7 -1 -18 -6 -23z m19 -36 c6 9 8 6 7 -9 -2
-19 -4 -20 -25 -6 -13 9 -23 20 -23 25 0 5 7 2 16 -7 14 -13 19 -14 25 -3z
m1649 -33 c57 -13 155 -61 200 -99 l35 -29 -60 29 c-46 21 -79 29 -141 32
l-82 5 60 -29 c126 -59 265 -195 329 -320 29 -57 8 -45 -30 16 -35 58 -127
157 -201 218 -95 76 -225 127 -350 137 -95 7 -89 14 34 36 89 16 148 17 206 4z
m281 -40 c31 -17 72 -47 90 -66 36 -39 29 -37 -40 10 -24 17 -70 38 -103 48
-32 10 -71 26 -86 34 -54 32 78 6 139 -26z m-506 -38 c16 -7 9 -10 -30 -16
-84 -11 -137 -30 -300 -106 l-60 -28 120 -1 c77 -1 113 -5 100 -10 -12 -5 -14
-9 -6 -9 8 -1 12 -3 9 -6 -10 -10 -384 -16 -425 -7 -39 9 -42 8 -33 -7 11 -22
71 -77 133 -120 26 -19 47 -36 47 -38 0 -2 -16 3 -35 11 -53 22 -121 72 -145
107 -12 16 -24 28 -27 25 -3 -3 4 -18 16 -34 22 -32 28 -58 11 -47 -19 12 -79
149 -80 183 0 2 15 -5 33 -16 17 -11 66 -25 107 -31 l75 -11 165 80 c91 43
176 81 190 83 43 7 114 6 135 -2z m-1621 -41 c7 0 13 -7 13 -15 0 -21 -13 -19
-39 7 -17 17 -18 20 -4 15 10 -4 23 -7 30 -7z m-630 -47 c10 -62 7 -95 -6 -91
-14 5 -78 85 -78 97 0 7 46 26 71 30 4 1 9 -16 13 -36z m3948 -59 c200 -17
271 -28 248 -37 -8 -4 -41 -16 -72 -27 -31 -12 -91 -43 -133 -71 -212 -138
-356 -359 -358 -550 l0 -58 -80 -46 c-94 -55 -202 -160 -237 -230 -35 -71 -40
-193 -11 -260 12 -27 19 -50 17 -52 -2 -2 -53 -8 -112 -13 -85 -7 -112 -6
-122 4 -21 21 -62 143 -68 205 l-6 57 47 25 c57 29 107 96 130 172 9 32 15 91
15 161 0 94 -4 120 -25 170 -19 47 -22 63 -13 79 6 12 13 60 16 108 4 77 2 93
-19 135 -12 27 -46 72 -74 102 -29 29 -57 68 -62 87 l-11 34 52 5 c176 20 654
20 878 0z m-3352 -94 c0 -50 -3 -61 -21 -71 -15 -8 -19 -8 -15 0 4 6 1 11 -6
11 -10 0 -10 2 0 9 9 5 13 23 11 47 -2 22 0 45 5 52 16 27 26 9 26 -48z m3986
39 c76 -10 190 -46 180 -56 -2 -3 -29 3 -58 13 -42 15 -83 19 -198 19 -148 0
-210 -12 -210 -41 0 -7 -10 -20 -22 -30 -23 -16 -23 -16 12 -10 142 28 223 33
248 17 9 -6 -2 -12 -35 -20 -69 -18 -203 -72 -203 -83 0 -5 8 -4 19 1 49 27
308 58 366 45 l30 -8 -40 -12 c-22 -7 -33 -13 -25 -14 8 0 -32 -16 -89 -36
-57 -19 -115 -43 -130 -53 -34 -24 -240 -121 -257 -121 -13 0 43 58 96 100
l25 19 -33 -9 c-19 -5 -40 -14 -48 -20 -7 -7 -19 -8 -25 -4 -8 5 -9 3 -4 -6 6
-10 4 -12 -7 -7 -9 3 -32 -6 -52 -19 -71 -49 -34 -13 54 52 50 36 90 70 90 75
0 11 -13 12 -25 0 -20 -17 -165 -89 -165 -81 0 18 -32 18 -63 0 -45 -28 -48
-25 -27 18 12 24 43 56 85 87 37 27 63 51 57 53 -7 2 -22 -4 -34 -12 -28 -20
-44 -21 -28 -1 18 21 8 19 -47 -11 -124 -69 -232 -178 -285 -289 -15 -33 -28
-52 -28 -43 0 27 64 142 116 208 81 103 214 198 346 246 110 40 271 53 414 33z
m-4068 -24 c-3 -3 -23 -8 -44 -10 -38 -5 -38 -5 -6 4 18 5 36 11 39 15 4 3 9
4 11 1 3 -3 3 -7 0 -10z m-557 -12 c13 -15 12 -15 -8 -4 -24 12 -29 21 -14 21
5 0 15 -7 22 -17z m462 0 c-7 -2 -19 -2 -25 0 -7 3 -2 5 12 5 14 0 19 -2 13
-5z m-33 -19 c0 -2 -7 -4 -15 -4 -8 0 -15 4 -15 10 0 5 7 7 15 4 8 -4 15 -8
15 -10z m130 6 c0 -15 -66 -23 -87 -11 -15 9 -11 10 18 5 22 -3 39 -1 43 5 9
14 26 14 26 1z m-570 -10 c0 -5 -4 -10 -9 -10 -6 0 -13 5 -16 10 -3 6 1 10 9
10 9 0 16 -4 16 -10z m-55 -10 c3 -5 1 -10 -4 -10 -6 0 -11 5 -11 10 0 6 2 10
4 10 3 0 8 -4 11 -10z m92 4 c-3 -3 -12 -4 -19 -1 -8 3 -5 6 6 6 11 1 17 -2
13 -5z m328 -4 c-3 -5 -10 -10 -16 -10 -5 0 -9 5 -9 10 0 6 7 10 16 10 8 0 12
-4 9 -10z m6200 -20 c-3 -5 -11 -10 -16 -10 -6 0 -7 5 -4 10 3 6 11 10 16 10
6 0 7 -4 4 -10z m-1522 -48 c27 -14 58 -39 70 -56 l21 -30 -44 31 c-25 17 -69
42 -97 57 -29 14 -53 29 -53 31 0 10 56 -8 103 -33z m-3388 -2 c-10 -16 -127
-81 -157 -87 -28 -6 -28 -6 -11 -26 11 -13 3 -10 -21 8 l-39 29 54 17 c30 8
78 30 108 47 50 28 79 34 66 12z m-1485 -39 c-13 -25 -20 -26 -46 -5 -18 15
-18 15 9 9 24 -5 30 -2 35 17 3 12 7 17 9 11 3 -7 -1 -21 -7 -32z m-77 -8 c-4
-10 -2 -14 4 -10 6 4 16 0 23 -8 14 -17 7 -45 -11 -45 -9 0 -9 4 0 14 7 8 8
17 3 20 -5 3 -14 -6 -20 -19 -18 -39 -32 -30 -32 20 0 38 3 45 20 45 14 0 18
-5 13 -17z m6914 -22 c3 -11 14 -22 26 -25 20 -5 20 -6 4 -24 -9 -10 -17 -26
-17 -35 0 -14 -6 -16 -27 -11 -22 4 -25 3 -13 -5 17 -12 10 -14 -14 -5 -9 3
-16 13 -16 22 0 8 -7 23 -16 33 -18 20 -11 39 16 39 10 0 20 7 24 15 8 21 27
19 33 -4z m-2389 -57 c-53 -50 -49 -57 25 -50 55 6 59 5 39 -7 -20 -11 -21
-15 -9 -25 8 -7 31 -18 53 -25 l38 -14 -56 -26 c-72 -34 -92 -35 -84 -3 8 33
-35 50 -114 44 -40 -3 -57 -1 -50 6 6 6 6 14 0 21 -8 9 -2 16 21 25 20 9 26
16 18 20 -23 15 69 57 151 69 3 0 -12 -15 -32 -35z m-3000 -1 c24 -8 42 -17
40 -19 -5 -4 -138 36 -138 42 0 6 47 -4 98 -23z m1327 17 c-3 -5 -2 -27 4 -47
17 -68 21 -103 12 -103 -10 0 -60 148 -53 155 10 9 43 5 37 -5z m3963 -15 c-3
-3 -9 2 -12 12 -6 14 -5 15 5 6 7 -7 10 -15 7 -18z m-6818 -6 c-13 -7 -13 -10
-1 -18 9 -6 10 -11 2 -15 -17 -11 -25 22 -11 39 7 9 15 13 19 10 3 -3 -1 -10
-9 -16z m40 -7 c0 -10 5 -23 12 -30 9 -9 9 -12 0 -12 -12 0 -32 31 -32 49 0 6
5 11 10 11 6 0 10 -8 10 -18z m2426 -20 c4 -19 4 -66 0 -105 l-6 -72 47 -23
c27 -12 63 -35 82 -52 32 -28 34 -33 42 -122 4 -51 13 -115 19 -143 15 -68 67
-162 106 -191 31 -24 32 -28 28 -77 -11 -117 -81 -203 -293 -361 -133 -99
-207 -131 -298 -131 -72 0 -95 16 -142 100 -16 29 -62 92 -101 141 -93 115
-118 159 -129 225 -14 81 -21 225 -10 208 7 -11 9 -11 9 4 0 28 17 11 24 -23
5 -29 8 -31 43 -28 35 3 38 6 41 36 3 33 4 33 23 16 18 -16 19 -16 19 0 0 10
-14 31 -31 47 -41 38 -90 40 -124 3 l-23 -25 -27 46 c-15 25 -25 48 -22 51 3
3 42 8 86 11 86 6 93 12 62 51 -16 18 -29 22 -73 22 -33 0 -62 -6 -76 -16 -13
-9 -26 -13 -30 -9 -12 12 -8 263 4 275 7 7 54 16 105 20 52 5 110 13 130 18
59 15 272 101 297 120 18 14 42 18 117 17 l95 0 6 -33z m-2369 -28 c-3 -3 -12
-4 -19 -1 -8 3 -5 6 6 6 11 1 17 -2 13 -5z m136 -6 c-15 -7 -30 -7 -50 0 -26
10 -24 10 22 11 42 0 46 -2 28 -11z m1272 -49 c5 -5 0 -9 -15 -9 -28 0 -90 34
-90 49 0 11 88 -23 105 -40z m5185 41 c0 -5 -7 -7 -15 -4 -8 4 -15 8 -15 10 0
2 7 4 15 4 8 0 15 -4 15 -10z m47 4 c-3 -3 -12 -4 -19 -1 -8 3 -5 6 6 6 11 1
17 -2 13 -5z m-1474 -57 c12 -12 21 -26 19 -32 -2 -5 0 -7 4 -3 10 11 34 -11
28 -26 -3 -8 4 -16 15 -19 32 -8 101 -159 107 -233 l4 -59 -19 50 c-28 74
-120 227 -168 280 -24 25 -43 52 -43 59 0 6 -6 18 -12 26 -20 21 40 -18 65
-43z m-481 3 c-28 -23 -23 -36 17 -45 20 -4 38 -1 56 11 44 29 37 10 -18 -43
-33 -33 -86 -69 -143 -97 -111 -56 -145 -61 -49 -7 124 70 190 144 76 87 -28
-14 -58 -28 -68 -29 -45 -9 -81 -21 -119 -38 -56 -26 -90 -26 -46 1 37 23 42
34 10 24 -13 -3 -21 -4 -18 -2 11 11 142 88 150 88 4 0 19 9 34 21 15 11 32
19 39 16 7 -3 28 4 47 14 46 24 61 23 32 -1z m298 -155 c33 -68 50 -142 50
-222 0 -49 -2 -54 -17 -48 -37 15 -75 24 -86 20 -7 -2 -24 -6 -39 -9 -16 -4
-28 -13 -28 -21 0 -8 12 -21 28 -29 l27 -15 -30 -1 c-16 -1 -45 -7 -64 -14
-49 -18 -125 -2 -146 31 -9 13 -37 37 -63 54 l-46 29 31 0 c59 0 51 35 -14 68
l-33 18 77 36 c88 41 221 156 243 209 l13 31 34 -38 c19 -22 47 -66 63 -99z
m-2234 89 c-4 -9 -1 -23 5 -30 9 -11 8 -14 -1 -14 -9 0 -8 -5 3 -18 14 -15 15
-29 5 -115 -7 -56 -15 -92 -20 -85 -6 10 -8 10 -8 1 0 -6 5 -15 10 -18 6 -3 9
-23 9 -43 -2 -30 -3 -32 -6 -9 -2 15 -8 27 -13 27 -5 0 -11 8 -13 18 -4 13 -5
12 -6 -5 0 -12 4 -25 9 -28 6 -3 10 -15 10 -26 0 -10 -4 -19 -10 -19 -5 0 -10
-8 -11 -17 0 -10 -8 0 -16 22 -23 58 -23 246 0 300 23 52 71 105 53 59z
m-1277 -20 c9 -8 -31 -16 -54 -10 -41 10 -30 28 13 20 20 -4 39 -8 41 -10z
m-889 -14 c0 -14 -255 -329 -434 -535 -33 -38 -61 -71 -61 -72 -2 -5 -320 178
-334 192 -11 11 -2 19 60 47 153 71 639 312 636 315 -8 8 -106 -35 -387 -170
-85 -40 -201 -96 -257 -122 l-103 -49 -31 -95 c-17 -53 -34 -102 -38 -109 -7
-12 -71 193 -71 225 0 6 -28 27 -62 46 -35 18 -97 56 -138 82 l-75 48 30 8
c17 5 179 31 360 59 182 28 400 61 485 75 169 27 338 52 385 58 17 2 31 5 33
6 1 0 2 -3 2 -9z m4636 -137 c16 -56 16 -67 -2 -55 -10 7 -94 178 -94 190 1 4
19 -13 41 -37 25 -28 45 -64 55 -98z m-5319 121 c-3 -3 -12 -4 -19 -1 -8 3 -5
6 6 6 11 1 17 -2 13 -5z m2943 -46 c-10 -29 -21 -89 -26 -133 -7 -79 -8 -79
-15 -35 -10 57 -1 123 22 178 26 60 41 52 19 -10z m-3023 36 c-3 -3 -12 -4
-19 -1 -8 3 -5 6 6 6 11 1 17 -2 13 -5z m102 -8 c-2 -2 -26 -6 -54 -9 -34 -4
-42 -3 -25 3 25 8 87 13 79 6z m7356 -94 c-3 -3 -11 0 -18 7 -9 10 -8 11 6 5
10 -3 15 -9 12 -12z m45 -12 c8 -5 12 -11 10 -14 -3 -2 -14 2 -24 10 -22 15
-10 19 14 4z m-70 -22 c0 -6 3 -9 6 -5 11 10 67 -24 107 -65 41 -42 43 -58 5
-37 -12 7 -27 12 -31 11 -5 -1 -6 1 -3 6 2 4 -9 17 -25 27 -16 11 -29 23 -29
28 0 4 -5 7 -11 7 -11 0 -39 24 -39 34 0 3 5 6 10 6 6 0 10 -5 10 -12z m-6734
-33 c-9 -9 -16 -13 -16 -8 0 5 5 14 12 21 6 6 14 10 16 7 2 -2 -3 -11 -12 -20z
m6788 -61 c3 -8 2 -12 -4 -9 -6 3 -10 10 -10 16 0 14 7 11 14 -7z m-6861 -28
c-10 -14 -22 -26 -26 -26 -4 0 2 13 14 30 13 16 24 28 27 26 2 -3 -4 -16 -15
-30z m3477 4 c19 -13 37 -44 55 -90 25 -67 54 -98 75 -85 6 3 10 12 10 19 0 7
14 32 30 54 32 45 67 55 90 27 7 -8 16 -47 20 -86 5 -45 15 -81 27 -97 32 -43
88 -83 129 -93 50 -11 156 -11 186 0 30 12 93 73 124 122 17 27 31 39 47 39
22 0 23 -3 19 -64 -3 -44 1 -83 13 -120 10 -30 15 -62 12 -70 -3 -7 -29 -22
-57 -31 -32 -11 -48 -20 -40 -25 18 -11 93 10 112 32 17 19 18 18 82 -4 36
-13 66 -29 66 -36 0 -7 -12 -38 -26 -67 -18 -39 -53 -81 -127 -150 -138 -130
-176 -155 -243 -155 -43 0 -69 9 -142 46 -98 50 -227 148 -292 221 -49 56 -96
150 -107 218 l-9 50 -42 -3 c-121 -10 -220 167 -167 296 9 20 26 45 38 54 30
24 83 22 117 -2z m588 -11 c36 -12 77 -35 97 -54 29 -27 35 -39 35 -75 0 -69
-49 -149 -104 -170 -69 -26 -201 3 -253 55 -31 31 -33 37 -33 109 0 42 2 76 5
76 3 0 16 -12 29 -26 19 -23 25 -25 43 -15 39 20 49 14 45 -28 -5 -52 30 -91
81 -91 28 0 37 6 53 35 l18 34 11 -27 c11 -27 12 -27 19 17 8 54 -14 96 -64
122 -32 16 -41 16 -105 4 -38 -7 -82 -11 -97 -8 -27 5 -28 6 -11 34 9 15 26
30 37 33 37 8 129 -4 194 -25z m-5198 6 c7 -8 8 -15 2 -15 -5 0 -15 7 -22 15
-7 8 -8 15 -2 15 5 0 15 -7 22 -15z m8004 -11 c9 -3 16 -12 16 -20 0 -17 -2
-17 -34 -3 -37 17 -20 38 18 23z m-5710 -117 c-5 -77 -3 -101 14 -149 11 -32
18 -58 16 -58 -3 0 -16 24 -29 53 -25 53 -33 152 -19 226 13 62 23 18 18 -72z
m1820 67 c18 -17 22 -39 6 -29 -5 3 -10 -1 -10 -10 0 -9 -4 -14 -9 -10 -5 3
-12 -4 -16 -15 -3 -11 -11 -20 -17 -20 -7 0 -7 4 1 13 6 8 8 17 4 20 -3 4 -1
7 6 7 9 0 11 8 7 24 -5 19 0 36 10 36 1 0 10 -7 18 -16z m4317 -19 c49 -18
119 -61 119 -74 0 -4 -23 3 -51 16 -60 29 -177 49 -193 33 -7 -7 -1 -10 20
-11 l29 -1 -30 -8 c-50 -13 -68 -11 -62 4 5 12 -1 12 -31 4 -20 -6 -54 -19
-75 -30 -22 -11 -41 -17 -44 -15 -7 8 83 66 125 82 50 18 140 18 193 0z
m-4438 -30 c-15 -19 -32 -35 -37 -35 -6 0 5 16 24 35 43 45 49 45 13 0z m1147
18 c0 -12 -33 -43 -47 -43 -14 0 -17 9 -5 26 11 17 52 31 52 17z m2778 -31
c34 -18 62 -34 62 -37 0 -6 -63 16 -78 28 -21 16 -201 15 -237 -2 -16 -7 -25
-15 -18 -18 7 -2 21 1 32 6 13 7 22 8 26 1 3 -5 -13 -13 -37 -16 -34 -6 -39
-9 -23 -16 20 -8 20 -8 0 -5 -11 2 -19 9 -17 15 1 7 0 12 -3 12 -17 0 -113
-71 -134 -99 -33 -43 -38 -32 -8 16 29 45 57 71 112 105 65 40 96 48 180 44
66 -2 91 -8 143 -34z m-2228 -17 c6 -4 4 -17 -6 -37 l-16 -30 -21 19 c-35 32
-56 34 -103 14 -48 -22 -59 -44 -46 -101 6 -26 15 -37 36 -45 25 -8 31 -6 52
18 13 16 24 35 24 43 0 9 6 14 13 12 6 -3 12 -10 11 -16 -1 -7 -2 -48 -2 -92
-2 -76 -3 -80 -24 -80 -41 1 -106 37 -122 69 -31 60 -14 179 30 208 14 9 45
17 70 17 24 1 39 3 34 4 -6 2 -8 7 -5 12 5 8 53 -1 75 -15z m2705 16 c10 -17
-12 -21 -25 -6 -10 12 -10 15 3 15 9 0 18 -4 22 -9z m-7897 -81 c39 -26 36
-32 -38 -72 -25 -14 -62 -35 -82 -47 l-37 -23 20 64 c11 35 27 82 36 106 l15
44 27 -25 c14 -13 41 -34 59 -47z m7282 60 c0 -6 -11 -8 -27 -4 -40 10 -41 14
-5 14 18 0 32 -5 32 -10z m-3707 -32 c-4 -7 -8 -19 -9 -26 -4 -26 -14 -25 -14
0 0 26 7 38 22 38 5 0 6 -6 1 -12z m3527 -18 c-8 -5 -19 -10 -25 -10 -5 0 -3
5 5 10 8 5 20 10 25 10 6 0 3 -5 -5 -10z m-2060 -39 c0 -6 -4 -13 -10 -16 -5
-3 -10 1 -10 9 0 9 5 16 10 16 6 0 10 -4 10 -9z m2780 -61 c52 -27 165 -143
190 -198 19 -40 37 -132 26 -132 -3 0 -16 24 -31 53 -15 28 -33 65 -41 80 -25
45 -159 173 -224 213 -33 20 -60 38 -60 39 0 5 101 -35 140 -55z m-375 10
c-74 -43 -140 -108 -169 -165 -32 -63 -34 -37 -2 30 28 62 74 107 140 140 69
35 92 31 31 -5z m-7350 -10 c3 -5 -3 -10 -15 -10 -12 0 -30 -5 -41 -10 -10 -6
-19 -8 -19 -6 0 6 51 35 62 36 4 0 10 -4 13 -10z m285 -4 c0 -2 -8 -10 -17
-17 -16 -13 -17 -12 -4 4 13 16 21 21 21 13z m-1213 -41 c-16 -17 -17 -14 -10
14 4 15 8 19 13 10 5 -6 3 -18 -3 -24z m974 18 c13 -17 13 -17 -6 -3 -11 8
-22 16 -24 17 -2 2 0 3 6 3 6 0 17 -8 24 -17z m5159 -25 c-14 -26 -70 -88 -80
-88 -4 0 10 19 31 41 21 23 41 51 45 61 3 11 8 17 11 15 2 -3 -1 -16 -7 -29z
m-2271 -20 c16 -45 21 -78 12 -78 -5 0 -13 21 -17 48 -7 41 -9 44 -15 22 -4
-14 -7 -20 -8 -13 -1 6 -8 19 -17 27 -14 15 -13 16 11 16 17 0 28 -7 34 -22z
m-3710 -88 c0 -26 -2 -31 -9 -20 -5 8 -9 35 -9 60 1 37 2 41 9 20 4 -14 8 -41
9 -60z m936 70 c3 -6 -1 -7 -9 -4 -18 7 -21 14 -7 14 6 0 13 -4 16 -10z m7462
-52 c-2 -13 -4 -5 -4 17 -1 22 1 32 4 23 2 -10 2 -28 0 -40z m-4712 0 c6 -4 2
-8 -7 -8 -10 0 -18 7 -18 17 0 9 3 12 8 7 4 -5 12 -12 17 -16z m4907 -36 c-5
-1 -8 -11 -5 -20 3 -12 -2 -18 -14 -18 -16 0 -17 4 -9 33 9 25 13 29 24 20 8
-6 10 -13 4 -15z m-8385 12 c-3 -3 -12 -4 -19 -1 -8 3 -5 6 6 6 11 1 17 -2 13
-5z m3355 -30 c-9 -16 -10 -14 -9 8 1 15 6 23 11 18 4 -4 4 -16 -2 -26z m123
24 c19 -8 28 -9 37 0 8 8 22 -8 54 -65 24 -41 55 -90 69 -109 14 -18 25 -36
24 -40 0 -4 4 -10 10 -14 25 -15 -142 -183 -299 -303 -128 -97 -314 -188 -384
-187 -64 1 -85 88 -42 175 l24 50 2 -60 c2 -54 3 -57 11 -30 6 17 7 59 4 95
l-6 65 43 27 c72 45 167 140 193 193 14 28 25 42 25 33 0 -10 5 -18 10 -18 6
0 10 8 10 18 0 21 17 49 24 41 4 -3 -1 -20 -10 -38 -9 -18 -14 -34 -12 -37 3
-2 21 29 42 69 44 87 71 120 111 135 17 6 31 11 32 11 1 1 14 -4 28 -11z
m-3475 -24 c0 -2 -12 -4 -27 -4 -21 0 -24 3 -14 9 13 8 41 5 41 -5z m4696
-121 c7 -63 214 -297 291 -329 32 -14 33 -16 26 -52 -14 -66 -3 -162 18 -162
7 0 9 10 5 24 -8 31 16 53 34 32 6 -9 8 -21 4 -27 -4 -8 -3 -9 5 -5 17 11 45
-26 96 -126 47 -91 59 -160 33 -186 -18 -18 -67 -14 -115 8 -40 17 -46 27 -96
132 -110 232 -201 353 -359 477 l-68 53 25 36 c40 58 58 127 52 191 l-6 56 26
-50 c15 -27 27 -60 29 -72z m-4919 55 c-3 -8 -6 -5 -6 6 -1 11 2 17 5 13 3 -3
4 -12 1 -19z m41 -6 c7 -21 7 -29 -2 -29 -7 0 -13 13 -13 29 0 15 1 28 3 28 1
0 6 -13 12 -28z m8186 -10 c-7 -4 -14 -16 -17 -27 -4 -15 -5 -14 -6 8 -1 20 4
27 17 27 11 0 13 -3 6 -8z m-8211 -59 c4 -21 3 -39 -2 -41 -10 -3 -2 -50 11
-58 5 -4 15 -1 21 5 17 17 27 13 28 -11 1 -21 2 -21 6 -3 3 11 10 25 15 30 8
7 9 5 5 -7 -8 -24 4 -31 19 -10 11 14 13 14 14 2 0 -22 -46 -94 -53 -83 -10
16 -129 16 -152 0 -25 -19 -48 -11 -36 11 4 10 14 46 21 82 16 78 35 127 52
133 24 8 45 -12 51 -50z m7358 -26 c-10 -9 -11 -8 -5 6 3 10 9 15 12 12 3 -3
0 -11 -7 -18z m877 1 c3 -13 -3 -18 -21 -18 -24 0 -42 21 -29 34 12 13 47 1
50 -16z m-663 -60 c156 -40 284 -68 313 -68 12 0 25 -6 28 -14 8 -20 -218
-829 -237 -850 -5 -5 -8 11 -7 35 1 24 -1 53 -6 64 -6 15 -5 17 3 5 14 -20 21
-9 36 52 7 29 15 63 19 76 4 13 3 22 -3 22 -6 0 -15 -15 -20 -32 l-9 -33 -1
31 c-1 38 -32 56 -74 41 -24 -8 -26 -11 -12 -21 12 -8 14 -20 10 -38 -8 -33
-57 -42 -117 -23 -26 8 -35 14 -23 15 11 1 -2 7 -30 14 -27 7 -61 16 -74 20
-15 6 -21 5 -17 -2 4 -6 -2 -10 -14 -9 -22 1 -27 13 -7 20 6 3 3 6 -8 6 -12 1
-27 -5 -34 -11 -8 -7 -6 -1 3 14 16 25 16 27 -1 31 -15 4 -14 5 4 6 12 0 23
-3 25 -8 2 -4 45 -18 96 -30 69 -15 98 -18 110 -10 14 8 12 9 -10 6 -16 -2
-28 0 -28 5 0 5 -10 6 -21 3 -12 -4 -19 -3 -16 2 8 12 -155 46 -178 37 -13 -5
-16 -4 -11 4 4 7 14 12 22 12 8 0 17 7 20 15 4 8 10 12 15 9 5 -3 9 0 9 5 0 6
-4 11 -10 11 -5 0 -9 8 -8 18 1 9 0 27 0 40 -2 21 -4 22 -17 8 -17 -17 -20
-30 -5 -21 6 3 10 -1 10 -10 0 -11 -5 -15 -14 -12 -10 4 -17 -7 -25 -38 -14
-56 -15 -52 11 -59 25 -6 16 -22 -17 -28 -14 -2 -23 -16 -32 -50 -6 -26 -14
-51 -17 -56 -3 -6 6 -13 20 -16 15 -4 24 -9 22 -11 -5 -5 -78 14 -78 20 0 2
27 106 61 232 33 125 80 306 105 402 24 95 49 182 55 192 11 22 3 23 184 -23z
m-7425 22 c8 -5 11 -10 5 -10 -5 0 -17 5 -25 10 -8 5 -10 10 -5 10 6 0 17 -5
25 -10z m4355 -4 c213 -57 431 -220 558 -417 129 -201 299 -638 296 -759 -1
-23 -5 -12 -11 30 -10 74 -29 118 -106 243 -67 110 -133 269 -134 322 -1 47
-11 71 -39 85 -49 27 -98 -64 -64 -117 8 -12 15 -25 15 -28 0 -3 -61 57 -135
133 l-134 138 -100 33 c-56 18 -98 37 -95 42 3 5 -2 9 -11 9 -9 0 -14 4 -11 9
3 4 -11 13 -32 19 -21 6 -46 19 -57 27 -19 15 -18 16 20 11 35 -4 32 -3 -18
14 -32 10 -81 21 -108 25 -55 8 -109 45 -109 76 0 17 7 19 63 19 34 -1 101 -9
148 -19 72 -15 86 -15 86 -4 0 9 -7 13 -19 10 -10 -3 -16 -2 -13 3 2 4 -21 15
-53 24 -100 29 -147 51 -150 69 -3 15 6 17 80 17 46 0 106 -6 133 -14z m2358
-11 c75 -19 133 -49 152 -78 13 -20 14 -42 5 -143 -19 -231 -96 -396 -214
-456 -57 -30 -174 -36 -251 -14 -156 46 -264 254 -265 509 0 93 1 99 26 122
30 28 114 61 187 75 71 13 290 4 360 -15z m484 3 c-3 -8 -6 -5 -6 6 -1 11 2
17 5 13 3 -3 4 -12 1 -19z m877 16 c27 -10 20 -44 -9 -44 -34 0 -32 -18 2 -22
17 -2 29 -10 31 -20 3 -15 -4 -18 -32 -18 l-36 0 0 55 c0 56 6 63 44 49z
m-7939 -53 l40 -9 -40 0 c-22 0 -53 4 -70 8 l-30 8 30 0 c17 1 48 -3 70 -7z
m7042 -33 c-3 -8 -6 -5 -6 6 -1 11 2 17 5 13 3 -3 4 -12 1 -19z m-3386 -24
c33 -34 33 -35 7 -23 -15 6 -25 15 -23 19 3 5 -1 10 -8 13 -9 3 -13 -2 -12
-16 1 -14 8 -21 18 -19 29 5 26 -14 -6 -32 l-32 -18 25 22 c14 12 19 19 13 15
-7 -3 -22 3 -34 14 -12 11 -26 18 -32 14 -5 -3 -3 -9 4 -14 10 -6 7 -8 -8 -6
-21 1 -21 3 -6 19 8 10 20 15 26 11 6 -4 7 -1 2 7 -7 11 9 29 26 30 3 0 21
-16 40 -36z m4295 -29 c-3 -9 0 -15 9 -15 9 0 12 -6 9 -15 -4 -9 -19 -15 -40
-15 -31 0 -34 3 -34 30 0 27 3 30 31 30 24 0 30 -4 25 -15z m-8206 -15 c0 -5
-18 -10 -40 -10 -22 0 -40 5 -40 10 0 6 18 10 40 10 22 0 40 -4 40 -10z m3789
-12 c-2 -2 -20 -16 -39 -33 l-35 -30 29 33 c17 17 34 32 40 32 5 0 7 -1 5 -2z
m222 -14 c35 -18 34 -23 -7 -26 -42 -3 -134 -54 -174 -97 -115 -124 -166 -194
-153 -214 4 -6 1 -7 -7 -2 -9 6 -12 4 -8 -7 4 -8 2 -21 -3 -29 -7 -11 -9 -10
-9 6 0 11 -3 15 -9 10 -11 -13 -61 -175 -61 -198 0 -11 -4 -15 -11 -11 -8 5
-10 -1 -7 -19 3 -15 1 -24 -3 -21 -5 3 -9 -4 -9 -15 0 -36 -32 -103 -46 -97
-7 3 -16 0 -20 -5 -4 -6 -11 -1 -18 13 -15 29 -38 30 -51 1 -11 -26 -42 -36
-49 -17 -3 8 -12 11 -22 7 -14 -5 -16 -2 -11 18 7 32 30 93 38 99 3 3 9 22 13
42 5 30 4 37 -11 41 -10 2 -7 3 8 1 16 -2 29 4 37 17 11 17 9 19 -21 19 -18 0
-37 -4 -42 -9 -6 -5 -21 -11 -35 -13 -17 -2 -25 -9 -25 -23 0 -25 -35 -33 -36
-8 -1 10 -1 21 0 25 0 4 -9 5 -22 4 -37 -4 -97 -27 -97 -37 0 -5 -18 -9 -40
-9 -41 0 -49 -7 -29 -27 15 -15 4 -43 -17 -43 -10 0 -14 6 -11 14 4 9 0 12
-12 9 -19 -5 -23 7 -56 139 -10 37 -21 66 -25 63 -12 -8 -22 -73 -34 -235
l-11 -145 -79 -3 c-57 -2 -82 1 -87 10 -7 10 -9 10 -9 -2 -1 -11 -4 -10 -15 4
-14 18 -15 18 -15 2 0 -9 -4 -15 -8 -12 -5 3 -12 53 -15 110 -5 89 -3 116 14
173 28 91 34 133 20 133 -6 0 -12 -8 -12 -17 -1 -16 -2 -16 -6 0 -5 18 -5 18
-18 -1 -17 -23 -44 -99 -46 -127 -1 -17 -2 -17 -6 -2 -2 9 -9 17 -15 17 -6 0
-8 -9 -5 -20 3 -12 1 -18 -5 -14 -16 10 -1 123 27 212 23 75 23 76 3 52 -42
-50 -75 -137 -153 -400 -42 -141 -66 -195 -95 -210 -10 -6 -26 -26 -35 -44 -9
-19 -31 -51 -48 -70 -29 -32 -34 -34 -51 -21 -18 13 -18 15 5 52 13 21 40 57
61 79 42 45 87 136 113 229 28 98 94 255 135 325 42 73 125 157 162 164 97 20
177 41 200 52 31 16 52 18 26 3 -10 -5 -18 -13 -18 -17 0 -8 49 -32 66 -32 8
0 9 -13 2 -47 -5 -27 -6 -70 -2 -98 17 -131 88 -175 224 -140 122 31 333 164
500 313 13 12 29 22 34 22 5 0 44 23 87 50 74 47 113 68 132 69 4 1 22 -6 38
-15z m-191 -4 c0 -5 -4 -10 -10 -10 -5 0 -10 5 -10 10 0 6 5 10 10 10 6 0 10
-4 10 -10z m-36 -31 c-3 -5 -10 -7 -15 -3 -5 3 -7 10 -3 15 3 5 10 7 15 3 5
-3 7 -10 3 -15z m3320 -14 c47 -44 53 -125 13 -201 -25 -48 -157 -126 -157
-92 1 19 20 40 66 70 39 25 74 78 74 112 0 27 -39 96 -55 96 -17 0 -28 17 -22
34 8 19 51 9 81 -19z m1134 -4 c-3 -31 -7 -37 -33 -42 -28 -6 -28 -7 9 -8 22
0 36 -4 33 -7 -3 -4 -2 -15 3 -25 11 -19 5 -23 -62 -35 l-38 -6 0 79 0 80 46
0 45 0 -3 -36z m-7500 6 c2 -10 -3 -17 -12 -17 -18 0 -29 16 -21 31 9 14 29 6
33 -14z m3087 3 c-3 -5 -16 -15 -28 -21 -22 -12 -22 -12 -3 10 19 21 43 30 31
11z m-3645 -45 l0 -46 -152 3 -153 3 0 35 c0 44 13 48 178 49 l127 1 0 -45z
m3517 20 c-23 -22 -33 -18 -12 5 10 11 20 18 23 16 2 -3 -3 -12 -11 -21z
m-3089 -49 c110 -55 166 -167 143 -281 -17 -79 -31 -105 -87 -154 -71 -63
-175 -83 -268 -51 -55 18 -131 92 -152 147 -53 138 15 300 149 352 66 27 147
22 215 -13z m3557 -7 l20 -12 -20 23 -20 23 33 -19 c49 -28 60 -44 31 -44 -19
0 -21 -2 -9 -10 9 -6 10 -10 3 -10 -7 0 -17 8 -22 18 -6 9 -11 11 -11 5 0 -8
-13 -13 -30 -13 -44 0 -147 -37 -203 -72 -80 -51 -152 -141 -216 -271 -49 -99
-60 -114 -65 -94 -15 62 77 300 149 384 66 78 268 151 320 116 11 -7 29 -18
40 -24z m1437 -24 c57 -68 66 -103 60 -237 l-2 -58 -33 0 c-20 0 -40 -7 -49
-17 -20 -22 -47 -128 -41 -157 2 -11 -14 11 -36 49 -58 102 -82 155 -74 167 3
7 1 8 -5 4 -6 -3 -16 3 -22 14 -6 11 -8 20 -4 20 4 0 -1 9 -11 21 -19 20 -19
20 8 10 20 -8 27 -7 28 2 0 6 4 3 9 -8 12 -28 12 -37 -2 -29 -7 4 -8 3 -4 -5
4 -6 12 -9 17 -6 14 9 11 63 -3 68 -7 2 -9 8 -5 13 4 4 22 -6 40 -24 17 -18
26 -32 20 -32 -9 0 -10 -7 -3 -26 6 -14 10 -56 10 -93 0 -38 5 -74 13 -84 10
-14 12 -7 13 47 1 49 6 71 23 92 22 28 28 50 11 39 -6 -4 -10 7 -10 25 0 20 4
29 11 24 34 -21 41 119 9 181 -11 22 -20 41 -20 43 0 8 30 -16 52 -43z m1456
23 c21 -21 13 -56 -19 -93 -31 -35 -52 -46 -44 -22 2 6 9 38 15 70 11 57 24
69 48 45z m-3493 -48 c-3 -5 -12 -10 -18 -10 -7 0 -6 4 3 10 19 12 23 12 15 0z
m47 -12 c-9 -9 -15 -9 -24 1 -11 10 -10 11 5 6 10 -5 17 -2 17 6 0 7 3 9 7 6
4 -4 1 -13 -5 -19z m816 -8 c6 0 15 7 20 16 7 12 16 14 33 9 13 -5 38 -9 56
-10 45 -3 156 -60 206 -107 23 -22 35 -36 28 -32 -10 5 -8 -4 6 -27 12 -19 34
-56 48 -84 14 -27 33 -55 42 -62 9 -7 13 -19 9 -28 -3 -9 -2 -14 3 -11 14 9
32 -20 24 -39 -5 -14 -3 -16 7 -10 10 6 12 3 8 -12 -3 -11 -2 -27 3 -35 4 -7
13 -63 19 -123 6 -61 15 -125 20 -143 9 -36 -5 -35 -20 2 -9 21 -9 21 -9 -2
-1 -14 -5 -21 -12 -16 -6 4 -9 19 -5 36 3 16 2 27 -3 24 -5 -3 -12 18 -16 47
-6 41 -9 48 -15 32 l-9 -20 0 20 c-1 11 -10 47 -21 80 l-19 60 5 -85 4 -85
-16 48 c-9 26 -19 46 -21 44 -2 -2 5 -48 16 -103 11 -54 22 -137 26 -184 l7
-85 -22 25 -22 25 7 -25 c4 -14 10 -31 12 -37 10 -27 -16 -11 -37 21 -11 19
-46 56 -77 83 -31 26 -63 54 -71 62 -12 13 -16 12 -24 -3 -8 -15 -12 -16 -19
-5 -5 8 -3 17 4 21 9 6 8 10 -2 17 -11 7 -15 31 -13 98 0 48 -3 108 -7 133
l-8 45 -2 -49 c-1 -56 -8 -59 -12 -6 -2 19 -6 40 -10 45 -3 6 -9 33 -13 62
-12 96 -46 206 -83 272 -21 36 -39 69 -41 73 -6 12 98 -20 135 -42 97 -57 175
-144 245 -273 36 -67 42 -63 13 9 -24 57 -106 173 -153 215 -53 47 -151 97
-208 106 -41 6 -64 19 -64 36 0 5 8 3 18 -6 10 -10 24 -17 30 -17z m9 24 c-3
-3 -12 -4 -19 -1 -8 3 -5 6 6 6 11 1 17 -2 13 -5z m3806 -44 c-3 -11 -9 -23
-14 -26 -10 -6 -12 29 -2 39 13 13 21 7 16 -13z m-1108 -109 c-7 -29 -16 -55
-19 -58 -4 -4 -42 12 -55 23 -3 3 82 91 86 89 1 0 -4 -25 -12 -54z m763 32
c-2 -23 1 -29 20 -31 19 -3 22 1 22 28 l0 32 98 -6 c154 -11 162 -13 162 -47
0 -42 35 -40 44 2 l6 32 66 -6 c37 -4 68 -8 70 -10 2 -2 -9 -92 -26 -201 -16
-108 -32 -227 -36 -264 -7 -75 -20 -92 -69 -92 -18 0 -58 -9 -91 -20 -54 -18
-69 -18 -169 -9 -66 7 -126 19 -151 30 -23 10 -56 19 -74 19 -25 0 -31 3 -26
16 3 9 6 25 6 36 0 20 4 21 95 16 114 -6 118 7 5 17 -75 7 -80 8 -80 31 0 26
27 45 56 39 54 -11 106 -13 96 -3 -5 5 -37 12 -71 15 -65 6 -69 11 -51 58 9
24 15 27 45 23 45 -5 46 8 1 16 -34 6 -34 7 -23 41 10 33 12 34 49 29 31 -5
38 -4 38 10 0 11 -9 16 -29 16 -36 0 -46 13 -31 40 9 18 21 20 93 20 45 0 98
-4 117 -9 53 -14 237 -25 225 -13 -5 5 -75 15 -155 21 -80 6 -174 14 -208 17
-71 6 -67 -3 -41 97 11 43 22 49 17 10z m-3722 -6 c0 -1 12 -18 27 -38 20 -26
27 -49 28 -87 2 -57 -8 -80 -18 -42 -6 22 -8 20 -19 -20 -7 -28 -12 -36 -13
-22 -1 32 -41 26 -58 -8 l-13 -25 -6 23 c-8 27 -20 28 -34 2 -6 -11 -15 -18
-21 -15 -5 4 -9 2 -9 -4 0 -5 6 -12 13 -15 6 -4 2 -4 -10 -2 -28 5 -83 -29
-83 -51 0 -11 -16 -26 -38 -38 -29 -16 -38 -27 -40 -52 -4 -35 -18 -44 -25
-15 -2 9 -3 4 -1 -12 2 -16 -3 -40 -12 -54 -15 -23 -15 -25 0 -19 39 15 -5
-38 -51 -62 -19 -9 -23 -9 -23 2 0 31 23 77 41 82 10 4 19 14 19 23 -1 15 -3
14 -15 -2 -15 -20 -15 -20 -15 0 0 33 27 109 60 170 107 199 145 246 218 274
37 14 92 18 98 7z m873 -66 c8 -14 7 -20 -4 -25 -22 -8 38 -168 141 -373 l87
-172 -17 -44 c-9 -23 -16 -63 -16 -88 0 -54 -13 -69 -57 -69 -66 0 -112 70
-148 225 l-14 60 5 -54 c3 -30 10 -63 15 -74 6 -10 8 -21 5 -24 -16 -16 -47
100 -70 257 -15 96 -33 200 -41 230 -8 30 -15 59 -15 64 0 5 30 -21 67 -58 37
-37 69 -63 71 -58 1 5 -11 35 -28 66 -28 55 -41 132 -23 149 12 13 32 7 42
-12z m1106 -56 c-33 -32 -31 -48 5 -78 60 -51 183 -83 406 -107 118 -13 295 0
418 31 101 24 107 23 24 -6 -45 -16 -113 -27 -212 -36 -333 -29 -686 50 -686
155 0 22 37 66 56 66 8 0 2 -11 -11 -25z m-6406 -75 l-2 -57 -101 4 c-72 3
-97 1 -86 -6 8 -6 27 -11 42 -11 40 0 128 -20 128 -30 0 -10 -88 -32 -100 -25
-6 4 -7 -1 -3 -11 4 -11 2 -15 -4 -11 -6 4 -30 3 -54 -1 -32 -6 -44 -12 -43
-25 1 -9 -2 -14 -7 -11 -5 3 -9 9 -9 15 0 5 -9 18 -20 29 -33 33 -25 62 28
113 59 55 100 77 161 86 68 11 72 7 70 -59z m7508 48 c-3 -8 -6 -5 -6 6 -1 11
2 17 5 13 3 -3 4 -12 1 -19z m-1648 -100 c-16 -49 -7 -157 20 -228 11 -30 43
-93 71 -140 27 -47 50 -89 50 -94 0 -13 2 -15 -83 126 -56 93 -78 141 -86 184
-20 107 -10 206 22 226 18 11 21 -29 6 -74z m277 -111 c23 -40 83 -150 133
-244 78 -145 99 -177 134 -200 61 -42 60 -58 -3 -34 -40 15 -48 16 -39 5 7 -8
8 -14 3 -13 -14 5 -88 -12 -100 -22 -8 -7 -13 11 -16 60 -4 48 -12 82 -28 108
-12 21 -31 53 -42 71 -10 18 -26 45 -36 60 -16 26 -16 26 1 13 21 -16 21 -13
2 32 -18 43 -19 50 -5 42 6 -3 10 -14 10 -24 0 -10 7 -24 15 -31 23 -19 19 8
-6 49 l-21 35 -20 -25 c-15 -18 -18 -20 -14 -5 5 15 4 16 -7 8 -10 -9 -12 -4
-10 26 2 27 1 32 -5 17 -8 -16 -10 -15 -15 14 -4 19 -7 52 -7 76 0 23 -7 64
-15 91 -8 27 -15 54 -15 59 0 11 40 -53 106 -168z m-426 100 c0 -17 98 -215
134 -271 20 -31 36 -58 36 -61 0 -3 14 -28 31 -56 36 -58 69 -172 69 -238 0
-60 -23 -143 -49 -180 -12 -16 -21 -35 -21 -43 -1 -7 -7 1 -15 19 -7 17 -11
41 -8 52 3 14 1 21 -8 21 -39 0 -259 -35 -259 -41 0 -4 10 -5 23 -3 17 3 16 2
-5 -7 -15 -5 -29 -18 -32 -27 -2 -9 -3 6 0 33 3 28 7 120 10 205 5 134 3 167
-15 245 -19 85 -59 204 -96 289 -16 37 -16 38 2 31 92 -39 152 -25 167 38 9
35 11 37 23 21 7 -10 13 -22 13 -27z m2179 -1 c-2 -30 -2 -30 -6 -3 -2 15 -9
27 -14 27 -6 0 -7 -4 -4 -10 9 -15 -11 -12 -24 4 -10 11 -8 15 6 18 31 7 43
-3 42 -36z m-1512 17 c2 -6 -2 -17 -9 -24 -47 -48 31 -122 177 -168 211 -68
524 -66 720 5 14 5 17 4 10 -3 -16 -17 -102 -41 -205 -59 -125 -21 -356 -14
-484 15 -153 36 -256 109 -256 183 0 48 36 86 47 51z m-438 -107 c14 -33 42
-80 61 -105 53 -68 109 -164 116 -200 4 -20 2 -37 -7 -48 -10 -11 -10 -14 -1
-9 7 4 12 2 12 -5 0 -6 -8 -9 -20 -6 -25 6 -26 -1 -2 -20 16 -14 16 -14 -3 -8
-11 4 -28 10 -37 12 -10 3 -22 22 -28 42 -5 20 -30 68 -55 106 -54 84 -73 124
-91 190 -17 61 -18 95 -3 132 l11 28 10 -25 c6 -14 22 -52 37 -84z m462 77 c8
-9 9 -14 2 -10 -6 4 -13 1 -16 -5 -2 -7 -7 -10 -11 -7 -6 5 2 39 9 39 1 0 9
-8 16 -17z m1194 -9 c11 -5 16 -4 12 2 -4 7 6 8 26 5 30 -4 30 -5 8 -11 -19
-4 -6 -10 52 -24 77 -18 102 -36 50 -36 -16 0 -46 5 -68 11 -22 6 -65 16 -96
23 -65 15 -82 24 -73 37 6 10 55 6 89 -7z m312 -46 c-3 -8 -6 -5 -6 6 -1 11 2
17 5 13 3 -3 4 -12 1 -19z m-7907 -2 c0 -8 -19 -18 -47 -25 -27 -7 -57 -14
-68 -17 l-20 -5 20 13 c20 13 93 45 108 47 4 1 7 -5 7 -13z m1704 -62 c-6 -39
-9 -44 -14 -25 -8 35 0 95 12 83 6 -6 6 -30 2 -58z m5766 46 c0 -5 -2 -10 -4
-10 -3 0 -8 5 -11 10 -3 6 -1 10 4 10 6 0 11 -4 11 -10z m-7465 -20 c3 -5 1
-10 -4 -10 -6 0 -11 5 -11 10 0 6 2 10 4 10 3 0 8 -4 11 -10z m6325 -31 c0 -6
-4 -7 -10 -4 -5 3 -10 11 -10 16 0 6 5 7 10 4 6 -3 10 -11 10 -16z m41 -26
c13 -17 13 -17 -6 -3 -11 8 -22 16 -24 17 -2 2 0 3 6 3 6 0 17 -8 24 -17z
m-5619 -37 c37 -8 94 -26 128 -39 68 -28 170 -87 170 -99 0 -4 -45 -8 -101 -8
l-101 0 -35 -35 c-45 -45 -43 -61 27 -231 27 -68 50 -128 50 -133 0 -5 -20 -9
-44 -9 -80 0 -127 -43 -117 -107 1 -11 20 -42 40 -70 55 -73 62 -90 52 -117
-18 -47 -32 -51 -128 -38 -274 36 -488 126 -628 265 -86 85 -118 146 -123 235
-5 89 10 138 66 212 73 97 168 151 322 184 82 17 327 12 422 -10z m6886 -8
c17 -17 15 -38 -5 -60 -21 -24 -29 -23 -49 7 -16 24 -16 27 1 45 21 23 36 25
53 8z m-1510 -63 c-3 -3 -9 2 -12 12 -6 14 -5 15 5 6 7 -7 10 -15 7 -18z
m1956 -77 c22 -31 20 -48 -14 -131 -16 -39 -68 -171 -116 -292 -196 -503 -257
-651 -269 -664 -13 -14 -30 -15 -415 -40 -305 -20 -614 -41 -759 -52 -135 -10
-146 -10 -158 7 -18 25 -17 36 13 107 15 34 98 276 185 537 139 414 163 479
189 503 30 26 33 27 163 28 72 1 276 5 452 8 176 4 409 8 517 9 193 2 197 2
212 -20z m729 -9 c142 -34 217 -92 217 -169 0 -70 -59 -122 -187 -167 -71 -25
-90 -27 -223 -27 -125 0 -154 3 -210 23 -131 46 -190 97 -190 165 0 48 21 78
81 116 120 78 329 102 512 59z m-4550 -38 c7 -7 7 -14 2 -20 -15 -12 -74 -31
-104 -32 -23 0 -24 -1 -6 -8 15 -6 10 -9 -25 -16 -25 -4 -61 -7 -80 -7 -19 1
-40 -4 -48 -10 -11 -10 -13 -6 -10 18 2 20 8 29 20 28 10 -1 16 3 15 9 -1 6
25 21 58 33 63 23 158 25 178 5z m-2647 -7 c469 -6 533 -8 552 -23 14 -11 50
-99 112 -271 50 -140 98 -273 107 -295 8 -22 40 -110 70 -195 29 -85 68 -185
85 -222 30 -65 30 -68 14 -93 -10 -15 -23 -25 -29 -22 -11 3 -83 175 -137 324
-12 35 -26 60 -31 57 -5 -3 -6 2 -3 10 3 8 -4 34 -16 58 -16 32 -20 36 -15 15
4 -19 2 -26 -5 -22 -6 4 -17 1 -25 -5 -11 -9 -18 -8 -32 5 -9 10 -30 23 -46
30 -30 13 -76 49 -152 121 -24 23 -59 47 -79 54 -20 6 -36 16 -36 21 0 5 -8 9
-19 9 -10 0 -24 6 -30 14 -16 19 -98 47 -116 39 -8 -3 -18 2 -21 11 -4 10 -28
28 -55 41 -26 14 -53 33 -59 42 -8 13 -13 15 -16 5 -4 -9 -15 -7 -41 9 -25 15
-37 19 -42 10 -5 -7 -17 -1 -36 19 -16 16 -33 30 -38 30 -5 0 -21 8 -35 19
-15 10 -46 25 -70 32 -42 12 -76 44 -66 61 3 4 -12 8 -33 9 -21 0 -47 4 -58 9
-13 5 -1 7 35 5 30 -1 45 -1 32 2 -12 2 -20 8 -17 12 6 10 -379 26 -394 17 -6
-4 15 -61 51 -144 77 -176 263 -607 298 -693 16 -36 35 -81 45 -98 16 -32 14
-54 -4 -35 -10 9 -330 732 -395 890 -32 77 -36 95 -26 113 18 34 47 41 150 36
52 -3 334 -8 626 -11z m3911 -26 c-3 -8 -6 -5 -6 6 -1 11 2 17 5 13 3 -3 4
-12 1 -19z m-648 -27 c20 -11 43 -27 50 -35 8 -9 20 -16 28 -16 8 0 12 -4 9
-9 -3 -5 1 -12 10 -15 8 -3 12 -2 9 4 -12 20 2 9 36 -27 18 -21 24 -29 12 -19
-42 35 -24 9 36 -53 54 -56 81 -101 60 -101 -5 0 -9 4 -9 10 0 14 -52 38 -99
46 -49 8 -180 -14 -159 -27 9 -6 7 -9 -8 -9 -20 0 -21 7 -27 127 -5 117 -4
143 9 143 3 0 22 -9 43 -19z m-5026 -85 c-17 -23 -80 -63 -93 -59 -3 1 -7 -10
-8 -24 -4 -46 -12 -38 -12 11 0 63 31 96 90 96 l41 0 -18 -24z m2724 -13 c47
-45 99 -120 108 -154 3 -13 7 -50 9 -81 l3 -58 -54 -25 -54 -26 -42 41 c-47
45 -129 90 -164 90 -22 0 -22 1 -5 18 17 17 54 75 116 185 15 26 31 47 35 47
5 0 26 -17 48 -37z m3513 7 c0 -5 -5 -10 -11 -10 -5 0 -7 5 -4 10 3 6 8 10 11
10 2 0 4 -4 4 -10z m-1760 -18 c0 -5 -15 -7 -32 -6 -30 3 -30 3 -8 -5 17 -5
-3 -8 -63 -8 -49 -1 -91 -4 -94 -7 -4 -3 29 -6 73 -6 122 -1 226 -32 270 -82
56 -63 59 -74 58 -220 -1 -76 -5 -143 -11 -150 -5 -7 -15 -38 -22 -68 -27
-112 -77 -143 -265 -167 -132 -16 -517 -13 -631 6 -33 5 -96 11 -140 13 -44 2
-82 6 -85 9 -10 11 -62 20 -55 9 3 -5 1 -10 -6 -10 -6 0 -3 -8 8 -17 10 -10
13 -14 5 -9 -9 6 -31 3 -63 -9 -86 -30 -191 -5 -226 55 -14 22 -14 23 0 7 17
-21 88 -59 95 -52 6 6 6 7 -40 28 -21 9 -38 22 -38 29 0 9 3 8 10 -2 5 -8 10
-11 10 -6 0 15 -32 46 -48 46 -13 0 -13 3 1 18 19 21 22 42 7 42 -5 0 -10 -4
-10 -9 0 -5 -23 -12 -52 -15 -68 -9 -81 -18 -119 -74 -39 -58 -56 -72 -86 -72
-26 0 -29 16 -9 57 7 15 23 49 35 74 15 32 40 59 77 85 47 34 65 54 49 54 -12
0 -121 -75 -133 -91 -7 -11 -20 -16 -30 -13 -12 4 -14 3 -4 -4 10 -7 8 -17
-10 -47 -35 -57 -83 -105 -107 -105 -29 0 -27 21 12 115 30 73 38 84 102 133
39 30 74 61 79 71 6 11 2 10 -15 -5 -13 -11 -48 -35 -76 -53 -59 -37 -93 -73
-112 -120 -8 -17 -18 -28 -24 -24 -5 3 -7 1 -3 -5 9 -14 -23 -80 -43 -87 -16
-6 -41 19 -41 42 0 23 86 197 106 215 10 9 46 32 79 52 76 45 65 46 -24 2 -70
-36 -111 -82 -157 -179 l-18 -37 -17 46 -18 46 43 41 c23 23 49 52 57 63 8 12
52 40 99 64 47 23 97 51 112 61 14 11 39 19 55 19 16 1 107 -39 218 -96 163
-82 199 -97 252 -101 107 -10 304 16 478 60 148 39 170 42 290 42 109 -1 140
-4 194 -23 35 -13 65 -21 67 -19 9 9 -77 57 -137 77 -44 15 -82 21 -133 19
l-71 -2 -7 44 c-3 24 -7 74 -7 110 -1 56 2 69 22 86 31 29 64 45 122 59 57 14
205 18 205 6z m47 -8 c-3 -3 -12 -4 -19 -1 -8 3 -5 6 6 6 11 1 17 -2 13 -5z
m182 -68 c9 -10 9 -16 1 -21 -6 -4 -14 -4 -17 -1 -4 3 0 6 8 6 10 1 8 5 -5 15
-11 8 -15 15 -9 15 6 0 16 -6 22 -14z m961 -25 c0 -10 -7 -24 -16 -31 -12 -11
-18 -10 -31 3 -21 21 -9 47 22 47 18 0 25 -5 25 -19z m-904 -19 c-4 -3 -14 2
-24 12 -16 18 -16 18 6 6 13 -6 21 -14 18 -18z m1945 -14 c-7 -19 -18 -24 -62
-28 -30 -3 -78 -18 -106 -33 -61 -31 -67 -25 -20 21 39 37 96 60 154 61 40 1
42 0 34 -21z m-1924 -20 c-3 -7 -5 -2 -5 12 0 14 2 19 5 13 2 -7 2 -19 0 -25z
m-1840 -10 c-3 -8 -6 -5 -6 6 -1 11 2 17 5 13 3 -3 4 -12 1 -19z m5537 -77
c-6 -6 -55 30 -80 58 -42 47 -25 44 30 -6 29 -26 52 -50 50 -52z m686 89 c0
-24 -65 -80 -128 -109 -115 -52 -283 -74 -337 -43 -12 6 13 11 81 15 155 9
285 52 349 116 34 34 35 34 35 21z m-3917 -52 c26 -12 47 -24 47 -28 0 -4 -30
0 -67 8 -38 7 -97 12 -133 10 -36 -3 -57 -3 -47 -1 9 3 17 11 17 18 0 29 111
25 183 -7z m3501 24 c7 -12 -5 -52 -15 -52 -5 0 -9 14 -9 30 0 28 13 40 24 22z
m64 -14 c-2 -6 -11 -12 -20 -14 -11 -1 -15 3 -11 12 6 17 36 19 31 2z m29 -20
c-3 -8 -6 -5 -6 6 -1 11 2 17 5 13 3 -3 4 -12 1 -19z m-2183 -42 c-15 -42 -17
-44 -39 -34 -14 6 -22 15 -19 19 3 5 0 9 -7 9 -22 0 12 30 45 39 17 5 32 10
33 10 1 1 -5 -19 -13 -43z m-3781 -2 c-22 -16 -33 -18 -33 -4 0 6 7 10 16 10
8 0 12 4 9 10 -3 6 1 7 10 4 14 -6 14 -8 -2 -20z m-271 -8 c29 -13 64 -35 77
-49 l23 -26 -20 -33 c-21 -33 -75 -88 -86 -88 -3 0 -6 6 -6 14 0 8 -17 57 -39
110 -44 110 -41 114 51 72z m2115 -8 c-3 -8 -6 -5 -6 6 -1 11 2 17 5 13 3 -3
4 -12 1 -19z m53 -23 c0 -5 -5 -3 -10 5 -5 8 -10 20 -10 25 0 6 5 3 10 -5 5
-8 10 -19 10 -25z m584 0 c46 -19 46 -32 -1 -41 -21 -4 -45 -11 -53 -16 -10
-6 -7 -7 10 -2 21 5 16 -3 -30 -51 -30 -32 -62 -65 -70 -74 -8 -9 -29 -50 -47
-91 -17 -41 -36 -75 -42 -76 -7 -2 -7 0 -1 3 5 2 10 23 10 46 0 31 3 38 10 27
5 -8 10 -12 10 -8 0 3 3 14 6 22 5 12 2 15 -12 10 -15 -6 -17 -4 -7 6 13 14 6
43 -8 34 -5 -3 -9 2 -9 10 0 23 -28 20 -42 -4 -16 -26 -24 -25 -32 3 -7 21 -7
21 -15 2 -5 -11 -6 -24 -3 -29 3 -5 0 -6 -6 -2 -8 4 -6 20 6 51 9 24 20 41 25
38 6 -3 7 -1 3 5 -13 21 55 91 117 122 68 34 124 38 181 15z m679 -47 c-4 -32
-10 -39 -45 -53 -22 -9 -42 -14 -45 -12 -2 3 14 12 37 21 39 15 40 17 40 63 1
31 4 43 9 33 5 -8 6 -32 4 -52z m2579 32 c75 -28 122 -80 114 -124 -3 -17 -18
-41 -33 -53 -35 -28 -136 -61 -216 -69 -161 -16 -347 59 -347 141 0 52 79 106
183 125 84 15 233 5 299 -20z m-2875 -22 c-3 -7 -5 -2 -5 12 0 14 2 19 5 13 2
-7 2 -19 0 -25z m3371 0 c-54 -52 -234 -107 -301 -92 -28 6 -30 8 -12 15 11 4
36 8 55 8 53 1 166 36 223 70 68 39 76 38 35 -1z m-4352 -46 c-11 -10 -14 3
-7 38 l6 35 3 -33 c2 -19 1 -36 -2 -40z m-2926 17 c52 -31 79 -69 80 -109 0
-20 -5 -41 -12 -48 -47 -47 -188 48 -188 127 0 23 35 51 65 51 11 0 36 -10 55
-21z m3738 10 c36 -12 51 -39 21 -39 -29 0 -107 -77 -136 -134 -24 -47 -65
-155 -63 -166 1 -10 -35 -11 -75 -2 -30 6 -39 13 -37 25 2 9 -2 17 -8 17 -5 0
-10 -7 -10 -15 0 -19 -19 -19 -43 0 -33 24 -28 122 8 147 5 4 7 8 2 8 -12 0
18 52 52 88 55 59 107 82 187 82 39 0 85 -5 102 -11z m196 -5 c3 -8 2 -12 -4
-9 -6 3 -10 10 -10 16 0 14 7 11 14 -7z m557 5 c81 -17 152 -53 191 -97 54
-60 60 -75 44 -113 l-14 -32 -26 42 c-15 23 -30 49 -32 56 -3 8 -36 32 -73 54
-75 46 -108 56 -46 15 68 -45 96 -76 131 -147 32 -63 34 -71 23 -102 -7 -19
-17 -31 -22 -28 -5 3 -33 43 -62 88 -52 80 -83 106 -190 164 -30 15 24 -33 66
-60 43 -27 57 -45 95 -122 36 -70 43 -92 32 -98 -35 -23 -76 1 -114 66 -30 52
-102 119 -159 147 -39 20 -38 19 18 -32 39 -36 69 -75 93 -121 l34 -69 -29 0
c-21 0 -37 9 -56 33 -52 64 -66 75 -102 82 -32 6 -35 9 -18 15 16 6 13 8 -13
7 -19 0 -28 -3 -21 -8 8 -5 4 -8 -12 -11 -30 -4 -28 -21 3 -28 19 -5 20 -8 8
-15 -8 -6 -24 -10 -35 -11 -11 0 -33 -6 -50 -13 -16 -7 -75 -14 -130 -16 -55
-1 -168 -6 -251 -10 -106 -6 -153 -5 -158 3 -9 14 18 142 38 180 9 17 31 47
51 67 30 33 39 37 67 32 18 -3 89 -15 158 -27 l125 -22 110 40 c61 22 144 54
185 70 91 36 78 34 141 21z m-594 -21 c-3 -8 -6 -5 -6 6 -1 11 2 17 5 13 3 -3
4 -12 1 -19z m-992 -124 c-18 -113 -27 -141 -21 -72 3 39 1 46 -13 41 -9 -3
-12 -1 -6 4 21 17 33 50 28 76 -4 22 15 62 25 52 2 -2 -4 -47 -13 -101z m-46
12 c-9 -8 -10 -7 -5 7 3 10 7 31 8 45 1 22 2 21 5 -7 3 -19 -1 -38 -8 -45z
m4171 30 c0 -8 8 -17 18 -19 9 -3 2 -5 -15 -6 -27 -1 -33 3 -33 19 0 11 7 20
15 20 8 0 15 -6 15 -14z m30 4 c0 -5 -5 -10 -11 -10 -5 0 -7 5 -4 10 3 6 8 10
11 10 2 0 4 -4 4 -10z m-2303 -15 c9 -25 -4 -29 -17 -6 -7 15 -7 21 0 21 6 0
13 -7 17 -15z m-1469 -72 c-5 -25 -28 -28 -28 -4 0 12 6 21 16 21 9 0 14 -7
12 -17z m-445 -8 c-3 -9 -8 -14 -10 -11 -3 3 -2 9 2 15 9 16 15 13 8 -4z m374
-52 c-4 -17 -4 -17 -12 0 -4 9 -4 25 0 35 8 16 8 16 12 0 3 -10 3 -26 0 -35z
m3131 18 c60 -47 132 -65 257 -65 131 -1 207 19 261 67 l37 32 -16 -30 c-36
-70 -176 -111 -322 -94 -49 5 -110 16 -134 24 -24 8 -47 12 -51 10 -12 -7 -40
5 -40 17 0 6 7 5 15 -2 9 -7 18 -10 21 -7 3 3 -8 13 -25 21 -27 14 -61 56 -46
56 4 0 23 -13 43 -29z m-3486 -6 c3 -13 1 -22 -3 -19 -9 5 -13 44 -5 44 2 0 6
-11 8 -25z m328 2 c0 -13 5 -28 12 -35 7 -7 8 -12 2 -12 -11 0 -34 42 -34 60
0 6 5 10 10 10 6 0 10 -10 10 -23z m-350 -17 c0 -17 -2 -19 -14 -8 -10 9 -11
15 -2 20 16 11 16 10 16 -12z m420 -10 c0 -5 -4 -10 -10 -10 -5 0 -10 5 -10
10 0 6 5 10 10 10 6 0 10 -4 10 -10z m-383 -32 c-3 -8 -6 -5 -6 6 -1 11 2 17
5 13 3 -3 4 -12 1 -19z m3993 -49 c-38 -29 -117 -49 -189 -48 -36 1 -55 3 -41
5 105 15 161 29 200 48 52 26 66 23 30 -5z m-299 -7 c-7 -2 -18 1 -23 6 -8 8
-4 9 13 5 13 -4 18 -8 10 -11z m-2361 4 c0 -2 -8 -10 -17 -17 -16 -13 -17 -12
-4 4 13 16 21 21 21 13z m2220 -27 c0 -5 -11 -3 -25 3 -14 6 -25 15 -25 19 0
5 11 3 25 -3 14 -6 25 -15 25 -19z m-4695 12 c-16 -15 -65 -18 -65 -3 0 4 17
8 37 10 23 1 34 -1 28 -7z m-5 -31 l-35 -7 35 -2 c19 -1 42 -6 50 -12 12 -8
10 -9 -10 -5 -14 3 -34 6 -46 6 -11 0 -28 6 -38 13 -17 12 -13 14 30 14 46 1
47 0 14 -7z m237 4 c-3 -3 -12 -4 -19 -1 -8 3 -5 6 6 6 11 1 17 -2 13 -5z
m122 -10 c2 -2 -14 -4 -37 -4 -22 0 -43 4 -46 9 -6 8 73 3 83 -5z m-3589 -29
c102 -8 303 -19 448 -25 257 -10 292 -14 292 -30 0 -16 -40 -21 -220 -26 -168
-5 -231 -9 -237 -14 -3 -3 -13 -5 -35 -10 -7 -2 7 -6 32 -10 l45 -7 -52 -1
-53 -2 21 -21 c13 -13 27 -18 42 -14 16 5 18 4 8 -3 -8 -6 -38 -9 -68 -7 -29
1 -55 -1 -58 -5 -7 -11 40 -21 62 -13 21 7 20 6 -31 -32 -22 -16 -36 -24 -33
-18 4 6 4 18 1 27 -5 12 -10 13 -25 6 -10 -6 -16 -17 -13 -25 7 -18 -22 -21
-30 -2 -3 6 -4 -8 -1 -32 l6 -44 -20 24 c-11 13 -21 22 -21 19 -1 -3 -3 -13
-5 -23 -7 -36 -15 -47 -41 -57 -22 -9 -25 -15 -20 -38 5 -20 4 -23 -4 -12 -9
13 -10 13 -10 0 0 -13 -1 -13 -10 0 -10 16 -11 15 -29 -15 -11 -19 -12 -18 -5
4 3 14 2 21 -3 18 -6 -4 -15 8 -21 26 -5 18 -33 97 -60 177 -61 181 -66 200
-50 200 7 0 96 -7 198 -15z m8700 0 c0 -18 -108 -346 -116 -354 -4 -3 -3 8 0
26 9 40 -3 111 -15 91 -7 -10 -9 -8 -9 6 0 22 -44 66 -66 66 -7 0 -14 4 -14 8
0 13 -63 35 -95 33 -23 -1 -27 0 -15 8 10 7 11 11 3 11 -7 0 -13 7 -13 15 0
13 -39 15 -278 14 -263 0 -312 3 -312 21 0 16 52 21 300 31 140 5 327 16 415
23 220 18 215 18 215 1z m-5117 -2 c-13 -2 -33 -2 -45 0 -13 2 -3 4 22 4 25 0
35 -2 23 -4z m640 -10 c-13 -2 -33 -2 -45 0 -13 2 -3 4 22 4 25 0 35 -2 23 -4z
m-580 -10 c-23 -2 -64 -2 -90 0 -26 2 -7 3 42 3 50 0 71 -1 48 -3z m180 0
c-13 -2 -33 -2 -45 0 -13 2 -3 4 22 4 25 0 35 -2 23 -4z m-559 -35 c3 -13 0
-28 -7 -34 -7 -6 -66 -16 -132 -22 -66 -6 -250 -25 -410 -42 -352 -36 -349
-36 -335 -11 5 11 10 35 10 54 l0 34 163 8 c89 4 225 13 302 20 77 7 199 13
271 14 129 1 132 0 138 -21z m2706 -11 c166 -11 175 -13 172 -32 -6 -35 -5
-60 3 -78 7 -16 3 -18 -41 -12 -188 21 -725 86 -751 90 -31 6 -49 28 -37 47 8
13 377 4 654 -15z m-4817 -34 c-7 -2 -19 -2 -25 0 -7 3 -2 5 12 5 14 0 19 -2
13 -5z m3101 -290 c15 -65 69 -287 121 -493 51 -206 90 -378 87 -381 -4 -4
-62 -5 -129 -2 l-123 6 -6 36 c-3 20 -10 60 -15 89 l-11 53 -96 -3 -97 -3 -16
-83 c-9 -45 -18 -84 -20 -87 -6 -5 -249 -19 -249 -14 0 6 240 972 245 987 3 9
41 12 143 12 l139 0 27 -117z m-788 91 c-4 -9 -9 -181 -13 -381 l-6 -364 124
2 c86 1 124 -2 123 -10 -1 -6 -2 -58 -2 -115 l-2 -103 -77 -6 c-43 -4 -153
-10 -245 -13 l-168 -7 0 314 c0 173 3 398 7 501 l6 187 46 4 c25 2 84 4 130 5
73 2 82 0 77 -14z m1272 -36 c12 -29 56 -141 98 -248 42 -107 78 -197 81 -200
3 -3 2 104 -2 236 -4 134 -3 244 1 247 5 3 60 3 122 0 l112 -6 0 -504 0 -503
-37 5 c-21 2 -73 7 -115 11 l-76 6 -26 61 c-14 34 -57 141 -95 237 l-70 175 0
-233 -1 -232 -112 6 c-62 4 -114 7 -114 8 -1 0 -5 223 -8 494 l-8 492 114 0
114 0 22 -52z m-1598 -68 c0 -128 15 -115 -152 -125 l-108 -7 0 -80 0 -80 33
5 c46 9 166 11 173 4 3 -3 3 -50 -1 -105 l-7 -99 -94 -5 c-52 -3 -96 -7 -99
-9 -2 -3 -5 -45 -6 -94 l-2 -90 74 3 c41 1 98 5 127 8 l52 6 0 -111 c0 -107
-1 -112 -22 -120 -13 -4 -108 -16 -213 -25 -104 -10 -208 -20 -229 -23 l-39
-6 5 512 c3 281 8 514 11 517 4 5 346 29 455 33 l42 1 0 -110z m-567 -34 c-2
-60 -5 -111 -7 -114 -3 -3 -188 -26 -253 -32 -2 0 -3 -37 -3 -81 l0 -82 48 7
c26 4 73 9 105 13 l57 6 0 -110 0 -111 -105 -7 -105 -7 0 -97 0 -97 83 8 c45
4 102 9 127 10 l45 3 -3 -115 c-2 -63 -5 -116 -5 -117 -2 -1 -339 -48 -427
-59 -25 -3 -54 -8 -64 -11 -19 -5 -19 1 -13 233 4 132 10 370 13 529 4 160 8
292 10 294 5 6 457 50 484 47 12 -1 15 -20 13 -110z m3112 90 c85 -39 87 -44
60 -123 -12 -38 -26 -83 -30 -100 -9 -44 -18 -47 -57 -23 -119 73 -209 -65
-196 -301 5 -74 11 -101 35 -147 24 -48 35 -59 71 -72 41 -14 76 -10 133 14
14 6 20 -7 39 -76 12 -46 25 -100 27 -120 l5 -37 -53 -15 c-135 -40 -267 -10
-359 83 -97 98 -140 215 -147 406 -4 109 -2 144 16 217 25 106 56 169 110 225
68 70 120 91 226 92 54 1 82 -5 120 -23z m385 -26 c118 -11 225 -20 238 -20
22 0 22 -2 22 -116 l0 -117 -116 7 c-65 4 -122 8 -128 9 -7 1 -12 -26 -14 -75
l-3 -76 28 -6 c15 -3 63 -8 106 -12 l77 -6 0 -108 0 -109 -57 7 c-77 9 -143 9
-143 0 0 -5 0 -45 0 -91 l0 -83 128 -20 127 -19 -4 -115 c-2 -63 -4 -116 -5
-117 -1 -2 -81 8 -177 21 -96 14 -205 28 -242 31 -38 4 -70 13 -72 19 -2 6 -6
237 -8 514 -5 465 -4 502 11 502 9 0 114 -9 232 -20z m-4757 -167 l-6 -132
-96 -22 c-53 -11 -122 -28 -153 -37 l-58 -15 0 -98 0 -98 33 6 c17 3 73 16
122 28 50 12 92 20 95 16 3 -3 4 -62 2 -131 l-4 -125 -71 -18 c-40 -10 -96
-25 -124 -33 l-53 -15 0 -238 0 -237 -157 -61 -156 -62 6 457 c4 251 7 541 7
644 l0 187 50 15 c44 13 467 100 530 109 14 1 28 0 32 -3 4 -3 5 -65 1 -137z
m5266 117 c135 -13 212 -33 287 -75 130 -73 194 -187 194 -349 0 -109 -25
-182 -82 -238 -26 -27 -54 -48 -63 -48 -8 0 -15 -1 -15 -3 0 -2 18 -50 41
-108 78 -201 131 -350 126 -355 -5 -6 -182 37 -230 55 -20 8 -35 40 -90 191
-37 101 -69 185 -72 188 -15 15 -18 -22 -17 -174 l2 -165 -44 6 c-25 4 -80 15
-123 24 l-78 17 -6 115 c-8 150 -11 924 -3 932 3 3 20 4 37 1 18 -2 79 -8 136
-14z m-4787 -1 c133 -28 188 -89 209 -233 20 -132 -20 -270 -105 -361 l-44
-46 80 -177 c43 -97 80 -181 81 -186 2 -10 -180 -55 -225 -56 -16 0 -28 1 -28
3 0 16 -128 314 -135 315 -6 1 -11 -65 -13 -177 -2 -160 -4 -180 -20 -185 -27
-8 -233 -56 -239 -56 -7 0 5 845 13 1007 l7 112 71 15 c166 36 263 43 348 25z
m5708 -105 c75 -17 214 -81 259 -120 23 -19 29 -30 22 -42 -5 -9 -19 -62 -32
-117 -12 -55 -26 -104 -30 -109 -4 -5 -25 5 -47 23 -108 85 -223 116 -256 69
-9 -12 -16 -30 -16 -38 0 -32 53 -96 132 -160 112 -92 202 -190 240 -263 32
-60 33 -66 33 -182 0 -115 -1 -122 -30 -174 -103 -186 -364 -179 -617 15 -32
25 -58 52 -58 60 0 14 36 183 46 217 8 25 14 22 75 -30 55 -47 149 -96 205
-108 42 -8 84 25 84 67 0 52 -42 107 -184 241 -119 112 -140 137 -173 204 -36
74 -38 81 -38 177 0 111 11 143 69 204 72 77 176 99 316 66z m-2780 -934 c63
-5 201 -14 305 -20 544 -29 1051 -102 1433 -205 70 -19 170 -46 222 -60 105
-28 534 -173 675 -228 101 -39 210 -90 180 -83 -75 17 -87 18 -81 7 4 -6 1
-11 -6 -11 -15 0 -242 75 -518 173 -668 235 -1113 328 -1855 388 -364 29
-1063 36 -1450 15 -346 -19 -513 -35 -820 -82 -478 -72 -721 -137 -1390 -372
-387 -136 -511 -175 -525 -167 -6 3 -10 2 -10 -4 0 -18 -102 -24 -140 -7 l-35
15 42 1 c46 0 138 30 413 135 773 294 1330 419 2170 485 140 11 291 21 335 23
193 7 951 5 1055 -3z m-550 -244 l0 -66 -92 0 c-129 0 -138 -4 -138 -51 l0
-39 98 0 97 0 -3 -65 -4 -64 -91 -3 -92 -3 0 -45 0 -45 113 4 112 3 0 -71 0
-71 -123 0 c-68 0 -158 -3 -200 -6 l-77 -7 0 290 c0 159 2 292 4 294 3 3 93 6
200 8 l196 3 0 -66z m429 38 c104 -35 162 -121 146 -218 -10 -57 -28 -89 -71
-124 l-36 -30 35 -55 c40 -62 80 -138 75 -141 -2 -1 -44 0 -94 2 l-90 4 -42
85 c-36 72 -46 84 -65 81 -20 -3 -22 -9 -25 -80 l-3 -78 -84 0 -85 0 0 291 0
291 143 -4 c102 -4 157 -10 196 -24z m-933 -10 c-3 -9 -6 -138 -6 -288 l0
-273 -82 -6 c-46 -3 -85 -3 -88 0 -3 2 -5 50 -5 106 0 115 11 103 -90 99 l-45
-2 0 -113 0 -114 -77 -11 c-43 -7 -84 -12 -90 -12 -10 0 -13 65 -13 289 0 160
3 292 8 295 4 2 44 7 90 11 l82 8 0 -107 0 -106 43 0 c86 0 85 -1 92 120 l8
109 31 4 c17 2 57 5 90 5 49 2 57 0 52 -14z m1409 -10 c72 -8 138 -14 148 -14
15 0 17 -10 17 -71 0 -69 -1 -71 -22 -66 -13 3 -65 9 -115 13 l-93 7 0 -41 0
-40 78 -7 c92 -7 126 -19 118 -41 -3 -9 -6 -36 -6 -61 l0 -45 -37 6 c-21 3
-64 8 -95 11 l-58 6 0 -49 0 -49 91 -7 c156 -12 149 -8 146 -82 -1 -34 -5 -65
-8 -68 -3 -3 -74 4 -159 14 -85 11 -174 20 -197 20 l-43 0 0 294 0 293 53 -4
c28 -2 111 -11 182 -19z m-288 -86 c-3 -8 -6 -5 -6 6 -1 11 2 17 5 13 3 -3 4
-12 1 -19z m-2063 -142 c22 -39 31 -44 70 -50 25 -4 48 -11 50 -15 3 -4 -10
-23 -29 -41 -32 -31 -33 -36 -28 -83 5 -41 4 -49 -8 -45 -86 32 -86 32 -128
13 -23 -10 -43 -16 -46 -13 -3 2 -1 26 4 51 8 46 8 48 -31 83 -22 19 -38 37
-36 38 1 1 25 7 53 12 45 8 52 13 73 52 13 23 25 42 27 42 2 0 15 -20 29 -44z
m3048 -28 c14 -16 37 -28 50 -28 48 0 52 -16 14 -46 -35 -28 -35 -30 -29 -81
3 -29 3 -53 -1 -53 -4 0 -26 10 -48 21 -41 21 -43 21 -77 3 -20 -10 -40 -20
-45 -23 -5 -2 -7 17 -3 46 5 48 4 52 -29 84 -19 18 -34 36 -34 39 0 4 21 11
47 16 42 8 50 14 72 53 l24 45 16 -25 c9 -13 28 -36 43 -51z m-3607 -23 c108
-86 434 -290 570 -357 28 -14 87 -44 132 -67 149 -76 152 -76 348 -37 343 70
620 90 1105 83 444 -7 690 -31 1012 -102 72 -16 80 -16 129 0 59 20 286 130
369 180 196 117 321 193 360 220 25 17 73 50 107 74 85 59 113 50 31 -10 -239
-175 -477 -319 -704 -426 -191 -90 -187 -90 -335 -60 -339 70 -593 92 -1074
92 -486 0 -699 -19 -1045 -91 -120 -26 -126 -26 -176 -10 -61 19 -342 160
-464 233 -78 47 -260 171 -388 265 -29 22 -50 43 -47 49 7 11 16 6 70 -36z
m5500 -125 c13 -5 14 -9 5 -9 -8 0 -24 4 -35 9 -13 5 -14 9 -5 9 8 0 24 -4 35
-9z m2 -26 c-3 -3 -12 -4 -19 -1 -8 3 -5 6 6 6 11 1 17 -2 13 -5z m70 0 c-3
-3 -12 -4 -19 -1 -8 3 -5 6 6 6 11 1 17 -2 13 -5z m-5798 -143 c715 -451 1488
-681 2291 -681 502 0 951 76 1418 239 309 109 540 221 874 423 54 33 102 57
107 53 5 -3 13 0 17 6 4 8 3 9 -4 5 -23 -14 -11 2 12 18 25 16 61 12 50 -5 -3
-5 0 -9 7 -9 10 0 10 -3 2 -11 -9 -9 -9 -16 0 -29 10 -16 13 -17 34 -3 37 24
26 1 -15 -33 -58 -48 -284 -194 -397 -255 -268 -147 -538 -261 -815 -345 -296
-89 -521 -136 -800 -169 -189 -22 -601 -30 -779 -16 -154 12 -377 42 -506 67
-265 52 -636 162 -830 246 -267 115 -638 319 -782 429 -35 26 -68 51 -75 56
-7 4 -20 17 -28 28 -13 18 -13 19 0 9 11 -8 24 -6 49 6 32 16 33 18 15 29 -20
13 -14 12 34 -5 9 -4 2 5 -17 20 -69 52 -15 24 138 -73z m4801 25 c0 -3 -4 -8
-10 -11 -5 -3 -10 -1 -10 4 0 6 5 11 10 11 6 0 10 -2 10 -4z m-2498 -413 l41
-16 -32 -26 c-27 -23 -31 -30 -25 -58 7 -38 -7 -43 -44 -18 -19 14 -24 14 -51
0 -41 -21 -41 -20 -41 25 0 31 -5 43 -25 56 -34 22 -32 30 13 41 27 6 44 19
62 46 l24 38 18 -36 c13 -25 31 -40 60 -52z m-632 0 c17 -18 21 -28 13 -30 -7
-3 -13 -13 -13 -23 0 -24 -38 -15 -61 14 -16 20 -16 22 4 42 28 28 28 28 57
-3z m1174 -15 c15 -24 -3 -52 -35 -56 -16 -2 -29 5 -37 19 -11 18 -11 24 4 40
21 23 52 21 68 -3z"/>
<path d="M3916 8793 c-21 -104 -46 -224 -56 -268 -10 -44 -17 -81 -15 -83 4
-4 192 30 204 37 6 4 3 38 -10 96 -11 50 -33 159 -49 244 -16 85 -31 155 -33
157 -2 2 -21 -80 -41 -183z"/>
<path d="M2333 8263 c-7 -2 -13 -11 -13 -18 0 -7 6 -15 13 -18 22 -7 48 5 45
22 -3 17 -24 23 -45 14z"/>
<path d="M5710 7189 c0 -5 5 -7 10 -4 6 3 10 8 10 11 0 2 -4 4 -10 4 -5 0 -10
-5 -10 -11z"/>
<path d="M3837 6855 c-49 -13 -91 -25 -93 -28 -9 -9 19 -45 43 -58 20 -11 36
-9 106 14 88 30 149 36 212 24 38 -7 39 -7 20 9 -45 35 -115 64 -157 63 -24 0
-83 -11 -131 -24z"/>
<path d="M3948 6733 c7 -3 16 -2 19 1 4 3 -2 6 -13 5 -11 0 -14 -3 -6 -6z"/>
<path d="M3889 6701 c-13 -16 -19 -39 -19 -70 l1 -46 13 30 c14 30 15 30 30
-17 4 -13 16 -18 38 -18 59 0 67 18 42 83 -5 14 0 14 45 0 77 -22 96 -13 40
20 -25 15 -54 27 -63 27 -9 0 -15 3 -13 8 3 4 -18 7 -45 7 -41 0 -54 -4 -69
-24z"/>
<path d="M3651 6608 c15 -28 6 -158 -16 -221 -18 -54 -14 -79 18 -100 41 -27
81 -30 107 -7 12 11 34 20 47 20 27 0 63 32 63 57 0 14 -3 13 -16 -5 -9 -13
-26 -22 -40 -22 -14 0 -34 -5 -45 -10 -13 -7 -19 -7 -19 0 0 13 -47 13 -55 0
-7 -12 -32 -3 -39 15 -2 7 2 37 10 67 18 68 18 149 0 193 -8 19 -18 35 -21 35
-3 0 0 -10 6 -22z"/>
<path d="M4074 6338 c2 -59 -196 -143 -337 -143 -42 0 -77 -3 -77 -7 0 -5 6
-8 14 -8 8 0 33 -16 56 -35 52 -43 93 -51 162 -31 66 19 117 60 169 137 22 32
46 59 54 59 20 0 19 36 -1 44 -29 11 -41 6 -40 -16z m-44 -107 c-35 -50 -99
-98 -143 -109 -50 -13 -109 -2 -139 24 -19 18 -18 19 54 30 41 6 110 27 153
47 99 44 101 44 75 8z"/>
<path d="M3847 6053 c-15 -2 -25 -9 -22 -14 9 -14 69 -11 91 6 18 14 17 14
-11 13 -16 0 -42 -3 -58 -5z"/>
<path d="M6655 6970 c-3 -6 1 -7 9 -4 18 7 21 14 7 14 -6 0 -13 -4 -16 -10z"/>
<path d="M1770 6750 c-124 -42 -253 -90 -259 -96 -8 -8 22 1 139 42 52 19 102
34 110 35 21 1 98 37 80 38 -8 0 -40 -8 -70 -19z"/>
<path d="M1450 6635 c-19 -7 -28 -14 -20 -14 8 0 29 6 45 14 39 17 21 18 -25
0z"/>
<path d="M5596 6616 c-15 -14 -26 -33 -26 -42 0 -13 5 -10 21 10 25 32 55 33
80 4 28 -34 24 -49 -10 -42 -23 5 -32 2 -40 -14 -16 -31 -2 -80 29 -102 48
-34 100 -19 66 19 -20 22 -20 30 1 53 14 15 14 24 5 56 -22 73 -84 101 -126
58z"/>
<path d="M6389 6227 c14 -18 62 -21 96 -7 17 7 15 8 -10 8 -16 -1 -46 3 -65 7
-32 8 -34 7 -21 -8z"/>
<path d="M6148 6223 c-22 -5 -23 -19 -4 -26 8 -3 22 -29 31 -57 43 -128 103
-190 185 -190 38 0 52 6 82 34 20 19 39 44 43 56 4 11 18 25 31 30 13 5 24 13
24 18 0 9 -182 42 -230 42 -27 0 -93 29 -124 54 -16 13 -17 18 -6 31 13 16 6
18 -32 8z m162 -122 c30 -11 72 -22 93 -26 51 -10 47 -25 -8 -25 -53 0 -102
18 -129 49 -23 26 -23 26 44 2z m17 -86 c3 -9 3 -18 1 -21 -9 -9 -35 7 -35 21
0 20 26 19 34 0z"/>
<path d="M6270 6650 c8 -6 24 -15 35 -21 16 -8 15 -6 -4 10 -13 12 -28 21 -35
21 -6 0 -4 -5 4 -10z"/>
<path d="M4351 5994 c0 -11 3 -14 6 -6 3 7 2 16 -1 19 -3 4 -6 -2 -5 -13z"/>
<path d="M4371 5974 c0 -11 3 -14 6 -6 3 7 2 16 -1 19 -3 4 -6 -2 -5 -13z"/>
<path d="M4356 5923 c-6 -14 -5 -15 5 -6 7 7 10 15 7 18 -3 3 -9 -2 -12 -12z"/>
<path d="M4245 5679 c-5 -15 -10 -17 -19 -9 -10 8 -12 5 -8 -15 4 -24 -13 -36
-20 -14 -2 6 -12 0 -23 -13 -11 -13 -13 -17 -5 -10 20 17 35 15 20 -3 -15 -18
-66 -20 -74 -2 -3 6 -5 3 -3 -8 4 -32 57 -32 96 1 27 23 61 72 61 89 0 14 -19
3 -25 -16z"/>
<path d="M6171 5554 c0 -11 3 -14 6 -6 3 7 2 16 -1 19 -3 4 -6 -2 -5 -13z"/>
<path d="M950 5911 c0 -5 5 -13 10 -16 6 -3 10 -2 10 4 0 5 -4 13 -10 16 -5 3
-10 2 -10 -4z"/>
<path d="M8236 5426 c3 -9 13 -16 22 -16 8 0 13 1 11 3 -2 1 -12 9 -22 16 -15
12 -17 12 -11 -3z"/>
<path d="M8555 5310 c3 -5 15 -10 25 -10 10 0 22 5 25 10 4 6 -7 10 -25 10
-18 0 -29 -4 -25 -10z"/>
<path d="M8158 5283 c7 -3 16 -2 19 1 4 3 -2 6 -13 5 -11 0 -14 -3 -6 -6z"/>
<path d="M8450 5249 c-12 -9 -11 -10 7 -6 13 3 26 1 29 -4 3 -5 13 -9 22 -9
15 1 15 2 -2 15 -23 18 -36 18 -56 4z"/>
<path d="M7726 5923 c-3 -4 4 -13 16 -21 l23 -13 -25 5 c-100 20 -249 16 -370
-9 -15 -3 -11 0 10 9 56 23 1 20 -61 -3 -43 -17 -48 -17 -37 -3 9 11 5 11 -14
-3 -55 -40 -42 -71 42 -109 159 -71 476 -53 573 33 28 26 30 31 17 46 -16 19
-129 75 -152 75 -8 0 -18 -3 -22 -7z m92 -29 c19 -10 20 -13 7 -18 -23 -8 -27
-8 -20 4 3 6 -3 10 -13 10 -11 0 -22 7 -25 14 -6 16 6 13 51 -10z m37 -24 c-3
-5 -12 -10 -18 -10 -7 0 -6 4 3 10 19 12 23 12 15 0z"/>
<path d="M3645 5460 c-3 -5 0 -10 9 -10 8 0 17 -6 19 -12 4 -8 6 -9 6 -2 1 18
-26 37 -34 24z"/>
<path d="M4269 5333 c-12 -15 -12 -16 4 -10 10 4 23 7 28 7 5 0 9 5 9 10 0 16
-26 12 -41 -7z"/>
<path d="M1319 5665 c-145 -75 -173 -279 -54 -395 32 -31 126 -70 168 -70 91
0 204 88 231 181 20 66 20 84 1 140 -48 141 -217 211 -346 144z m139 -12 c-16
-2 -40 -2 -55 0 -16 2 -3 4 27 4 30 0 43 -2 28 -4z m-145 -38 c-3 -9 -2 -15 3
-14 29 5 44 -3 44 -24 0 -13 5 -28 12 -35 8 -8 8 -15 -2 -27 -9 -11 -16 -13
-24 -5 -5 5 -20 10 -32 10 -13 0 -29 9 -37 20 -8 11 -17 17 -20 13 -4 -3 -7 1
-7 11 0 18 43 66 59 66 6 0 8 -7 4 -15z m-33 -290 c11 -13 10 -14 -4 -9 -9 3
-16 10 -16 15 0 13 6 11 20 -6z"/>
<path d="M5501 5214 c0 -11 3 -14 6 -6 3 7 2 16 -1 19 -3 4 -6 -2 -5 -13z"/>
<path d="M9085 5276 c-13 -13 -30 -26 -37 -29 -7 -3 -1 -6 13 -6 27 -1 41 10
52 42 9 23 1 21 -28 -7z"/>
<path d="M8973 5213 c-17 -2 -37 -11 -44 -20 -11 -13 -10 -18 10 -34 33 -27
53 -23 78 16 18 28 19 34 6 39 -8 3 -15 5 -16 4 -1 0 -16 -3 -34 -5z"/>
<path d="M9090 5104 c37 -8 88 -9 84 -2 -3 4 -26 7 -52 7 -26 -1 -40 -3 -32
-5z"/>
<path d="M8945 5030 c-2 -4 35 -10 83 -14 48 -4 104 -10 125 -13 23 -3 37 -2
37 5 0 6 -34 13 -77 16 -43 4 -97 8 -121 10 -23 2 -44 0 -47 -4z"/>
<path d="M5932 5160 c0 -30 3 -73 7 -95 l9 -40 0 40 c0 22 -3 65 -8 95 l-7 55
-1 -55z"/>
<path d="M6170 4916 c0 -8 4 -17 9 -20 5 -4 7 3 4 14 -6 23 -13 26 -13 6z"/>
<path d="M426 5188 c4 -5 13 -7 21 -4 11 4 13 2 9 -9 -3 -8 -1 -15 5 -15 21 0
3 33 -18 35 -12 1 -20 -2 -17 -7z"/>
<path d="M6880 4945 c0 -5 5 -17 10 -25 5 -8 10 -10 10 -5 0 6 -5 17 -10 25
-5 8 -10 11 -10 5z"/>
<path d="M6905 4891 c-3 -5 -2 -12 3 -15 5 -3 9 1 9 9 0 17 -3 19 -12 6z"/>
<path d="M6593 4452 c-7 -4 -9 -13 -4 -21 6 -9 10 -7 14 8 3 12 4 21 4 21 -1
0 -7 -4 -14 -8z"/>
<path d="M1256 4948 c-40 -36 -43 -70 -9 -108 36 -40 99 -50 156 -27 65 28 69
104 8 140 -43 25 -124 23 -155 -5z m158 -13 c32 -21 34 -54 4 -82 -33 -30 -71
-36 -116 -18 -47 19 -66 52 -49 86 21 41 107 49 161 14z"/>
<path d="M939 4917 c-70 -47 -41 -136 49 -152 56 -9 128 22 138 61 10 40 -6
74 -46 95 -47 26 -100 24 -141 -4z m58 -13 c-3 -3 -12 -4 -19 -1 -8 3 -5 6 6
6 11 1 17 -2 13 -5z"/>
<path d="M813 4709 c-40 -12 -63 -43 -63 -86 0 -46 50 -83 114 -83 51 0 100
20 110 45 21 56 -8 107 -71 124 -44 12 -47 12 -90 0z m62 -29 c-12 -5 -14 -9
-6 -9 16 -1 -25 -41 -42 -41 -6 0 -2 7 9 15 17 13 17 14 2 15 -9 0 -23 -8 -30
-17 -16 -22 -38 -28 -38 -10 1 32 40 57 90 56 29 0 31 -2 15 -9z m25 -34 c0
-2 -7 -7 -16 -10 -8 -3 -12 -2 -9 4 6 10 25 14 25 6z m11 -33 c13 -16 12 -17
-3 -4 -10 7 -18 15 -18 17 0 8 8 3 21 -13z"/>
<path d="M1078 4573 c-8 -10 -22 -30 -31 -44 -9 -15 -32 -37 -51 -49 -52 -31
-48 -90 5 -90 34 0 80 -20 128 -55 49 -36 67 -32 99 21 15 25 44 69 65 97 20
28 37 54 37 58 0 3 -26 9 -58 11 -48 3 -66 10 -98 36 -43 36 -74 40 -96 15z"/>
<path d="M9109 4835 c-63 -23 -98 -45 -110 -68 -10 -19 -7 -18 19 6 16 16 59
39 93 52 35 13 57 24 49 24 -8 0 -31 -6 -51 -14z"/>
<path d="M4838 4813 c7 -3 16 -2 19 1 4 3 -2 6 -13 5 -11 0 -14 -3 -6 -6z"/>
<path d="M4790 4650 c0 -5 5 -10 11 -10 5 0 7 5 4 10 -3 6 -8 10 -11 10 -2 0
-4 -4 -4 -10z"/>
<path d="M3415 4068 l-16 -33 20 25 c20 24 26 40 16 40 -2 0 -12 -15 -20 -32z"/>
<path d="M3848 3953 c6 -2 18 -2 25 0 6 3 1 5 -13 5 -14 0 -19 -2 -12 -5z"/>
<path d="M5712 4160 c0 -14 2 -19 5 -12 2 6 2 18 0 25 -3 6 -5 1 -5 -13z"/>
<path d="M5865 4130 c-3 -5 1 -10 9 -10 9 0 16 5 16 10 0 6 -4 10 -9 10 -6 0
-13 -4 -16 -10z"/>
<path d="M5926 4117 c3 -10 9 -15 12 -12 3 3 0 11 -7 18 -10 9 -11 8 -5 -6z"/>
<path d="M5880 4100 c0 -5 9 -10 20 -10 11 0 20 5 20 10 0 6 -9 10 -20 10 -11
0 -20 -4 -20 -10z"/>
<path d="M5840 4090 c0 -5 7 -10 16 -10 8 0 12 5 9 10 -3 6 -10 10 -16 10 -5
0 -9 -4 -9 -10z"/>
<path d="M5835 4052 c3 -8 5 -22 5 -32 0 -24 78 -40 91 -19 12 19 11 52 -1 44
-5 -3 -10 -2 -10 3 0 6 -20 12 -45 14 -35 2 -44 0 -40 -10z"/>
<path d="M5780 4051 c0 -5 5 -13 10 -16 6 -3 10 -2 10 4 0 5 -4 13 -10 16 -5
3 -10 2 -10 -4z"/>
<path d="M7072 4149 c6 -16 12 -28 14 -26 5 5 -13 57 -20 57 -3 0 0 -14 6 -31z"/>
<path d="M7000 4061 c5 -11 15 -23 21 -27 6 -3 3 5 -6 20 -20 30 -30 35 -15 7z"/>
<path d="M1090 3750 c-8 -5 -10 -10 -5 -10 6 0 17 5 25 10 8 5 11 10 5 10 -5
0 -17 -5 -25 -10z"/>
<path d="M1050 3700 c0 -5 5 -10 10 -10 6 0 10 5 10 10 0 6 -4 10 -10 10 -5 0
-10 -4 -10 -10z"/>
<path d="M4960 3360 c-10 -43 -55 -332 -51 -335 7 -8 111 -6 111 2 0 12 -51
318 -55 328 -2 6 -4 8 -5 5z"/>
<path d="M7530 3081 c0 -146 0 -149 23 -153 76 -15 127 40 127 135 0 75 -26
126 -74 150 -76 36 -76 36 -76 -132z"/>
<path d="M2496 3148 c-3 -50 -6 -118 -6 -151 l0 -59 31 6 c55 11 87 42 105
103 33 114 0 193 -81 193 l-42 0 -7 -92z"/>
<path d="M3848 2373 c6 -2 18 -2 25 0 6 3 1 5 -13 5 -14 0 -19 -2 -12 -5z"/>
<path d="M5310 2040 l0 -80 45 0 c35 0 52 6 70 25 29 28 31 54 10 94 -15 30
-39 41 -92 41 l-33 0 0 -80z"/>
<path d="M6722 8818 c0 -156 2 -314 6 -352 7 -66 8 -70 37 -79 32 -9 38 -11
179 -51 48 -14 104 -34 123 -46 19 -11 39 -17 45 -14 7 5 8 2 4 -5 -5 -7 -1
-20 7 -29 37 -42 46 -81 58 -248 7 -93 15 -175 19 -183 4 -8 5 27 2 77 l-5 92
42 0 c22 0 41 -4 41 -10 0 -5 16 -10 35 -10 19 0 35 5 35 10 0 6 15 9 33 9 17
-1 24 -3 15 -6 -10 -2 -18 -11 -18 -19 0 -16 16 -19 25 -4 4 6 15 10 24 8 10
-2 26 4 35 12 16 12 20 12 34 -7 10 -11 25 -25 35 -30 17 -9 17 -11 3 -26 -24
-24 -20 -47 8 -47 14 0 28 5 31 10 3 6 12 10 18 9 7 0 2 -7 -10 -16 -19 -13
-20 -17 -8 -29 8 -8 32 -23 55 -33 22 -10 37 -21 33 -24 -3 -4 -1 -7 5 -7 6 0
13 -8 15 -17 4 -17 5 -17 6 0 0 10 5 16 10 12 5 -3 13 5 17 17 13 43 82 114
138 142 101 51 217 44 310 -19 l34 -23 31 27 c17 15 31 32 31 37 0 5 -5 2 -10
-6 -5 -8 -10 -10 -10 -4 0 6 8 18 17 25 14 12 16 12 9 0 -6 -9 -5 -12 5 -9 8
3 14 13 14 24 0 12 7 19 20 19 13 0 19 6 17 18 -2 12 2 15 14 10 43 -16 -36
68 -231 246 -185 169 -508 404 -730 532 -176 101 -601 299 -641 299 -7 0 -11
-100 -12 -282z m642 -279 c34 -27 35 -71 1 -104 -48 -49 -135 -17 -135 49 0
68 77 100 134 55z m379 -193 c18 -7 43 -25 56 -40 15 -16 35 -26 52 -26 59 0
108 -46 94 -89 -4 -14 -39 -16 -342 -16 -239 0 -337 3 -340 11 -6 17 65 47
122 52 28 3 62 14 77 25 17 12 41 20 62 19 25 -1 39 5 49 18 17 25 84 59 115
60 12 0 37 -6 55 -14z m-556 -228 c-3 -8 -6 -5 -6 6 -1 11 2 17 5 13 3 -3 4
-12 1 -19z m276 -135 c-3 -7 -6 -13 -8 -13 -2 0 -5 6 -8 13 -3 8 1 14 8 14 7
0 11 -6 8 -14z m107 -43 c0 -5 -2 -10 -4 -10 -3 0 -8 5 -11 10 -3 6 -1 10 4
10 6 0 11 -4 11 -10z m-13 -57 c-10 -10 -17 -11 -21 -4 -4 6 0 11 8 11 9 0 16
8 17 18 0 11 2 13 6 4 3 -8 -1 -21 -10 -29z m149 -74 c1 -25 -1 -28 -8 -15 -5
10 -7 24 -4 32 8 21 11 17 12 -17z"/>
<path d="M7356 7932 c-4 -7 -2 -12 5 -12 6 0 9 -8 6 -20 -3 -11 -1 -18 4 -14
5 3 9 12 9 21 0 14 3 14 20 -2 11 -10 20 -13 20 -8 0 15 -28 36 -39 29 -5 -3
-11 -1 -13 6 -3 9 -6 9 -12 0z"/>
<path d="M7390 7881 c0 -5 7 -12 16 -15 14 -5 15 -4 4 9 -14 17 -20 19 -20 6z"/>
<path d="M7371 7854 c0 -11 3 -14 6 -6 3 7 2 16 -1 19 -3 4 -6 -2 -5 -13z"/>
<path d="M7428 7843 c7 -3 16 -2 19 1 4 3 -2 6 -13 5 -11 0 -14 -3 -6 -6z"/>
<path d="M7202 7740 c0 -14 2 -19 5 -12 2 6 2 18 0 25 -3 6 -5 1 -5 -13z"/>
<path d="M7681 7704 c0 -11 3 -14 6 -6 3 7 2 16 -1 19 -3 4 -6 -2 -5 -13z"/>
<path d="M2380 7556 c0 -2 7 -6 15 -10 8 -3 15 -1 15 4 0 6 -7 10 -15 10 -8 0
-15 -2 -15 -4z"/>
<path d="M2358 7533 c6 -2 18 -2 25 0 6 3 1 5 -13 5 -14 0 -19 -2 -12 -5z"/>
<path d="M2438 7533 c7 -3 16 -2 19 1 4 3 -2 6 -13 5 -11 0 -14 -3 -6 -6z"/>
<path d="M1195 7515 c-16 -8 -23 -14 -14 -15 8 0 24 7 35 15 23 18 18 18 -21
0z"/>
<path d="M2739 7483 c-13 -16 -12 -17 4 -4 9 7 17 15 17 17 0 8 -8 3 -21 -13z"/>
<path d="M1067 7464 c-16 -9 -27 -18 -24 -20 7 -7 57 18 57 28 0 10 1 10 -33
-8z"/>
<path d="M947 7414 c-16 -9 -26 -18 -23 -21 7 -8 66 17 66 28 0 12 -10 11 -43
-7z"/>
<path d="M2528 7413 c7 -3 16 -2 19 1 4 3 -2 6 -13 5 -11 0 -14 -3 -6 -6z"/>
<path d="M831 7339 c-13 -11 -21 -23 -17 -26 4 -4 19 5 34 20 31 31 19 36 -17
6z"/>
<path d="M2365 7268 c11 -6 23 -16 27 -22 5 -8 8 -7 8 1 0 7 -9 17 -19 23 -27
14 -41 12 -16 -2z"/>
<path d="M750 7243 c-8 -16 -16 -31 -18 -35 -2 -5 1 -8 6 -8 7 0 16 14 40 63
2 4 0 7 -5 7 -6 0 -16 -12 -23 -27z"/>
<path d="M7988 7263 c6 -2 18 -2 25 0 6 3 1 5 -13 5 -14 0 -19 -2 -12 -5z"/>
<path d="M8048 7253 c12 -2 30 -2 40 0 9 3 -1 5 -23 4 -22 0 -30 -2 -17 -4z"/>
<path d="M7985 7240 c-18 -8 -17 -9 8 -9 16 -1 26 3 22 9 -3 6 -7 10 -8 9 -1
0 -11 -4 -22 -9z"/>
<path d="M8105 7240 c-3 -6 1 -7 9 -4 18 7 21 14 7 14 -6 0 -13 -4 -16 -10z"/>
<path d="M8058 7233 c7 -3 16 -2 19 1 4 3 -2 6 -13 5 -11 0 -14 -3 -6 -6z"/>
<path d="M8130 7220 c-8 -5 -10 -10 -5 -10 6 0 17 5 25 10 8 5 11 10 5 10 -5
0 -17 -5 -25 -10z"/>
<path d="M8180 7186 c0 -2 8 -10 18 -17 15 -13 16 -12 3 4 -13 16 -21 21 -21
13z"/>
<path d="M718 7138 c-3 -7 -1 -24 3 -38 6 -22 7 -20 8 13 1 38 -3 47 -11 25z"/>
<path d="M2080 7110 c0 -5 18 -10 40 -10 22 0 40 5 40 10 0 6 -18 10 -40 10
-22 0 -40 -4 -40 -10z"/>
<path d="M8441 7033 c7 -12 15 -20 18 -17 3 2 -3 12 -13 22 -17 16 -18 16 -5
-5z"/>
<path d="M2070 7025 c7 -8 20 -15 29 -14 12 0 11 2 -4 9 -14 6 -3 8 35 5 42
-3 48 -2 25 4 -16 5 -45 9 -64 10 -29 1 -32 -1 -21 -14z"/>
<path d="M2215 7031 c29 -7 29 -7 -14 -14 -24 -4 -42 -10 -39 -12 4 -5 176 20
182 26 2 2 -33 5 -77 5 -48 1 -69 -1 -52 -5z"/>
<path d="M740 7014 c0 -7 9 -22 20 -35 25 -31 26 -12 0 21 -11 14 -20 20 -20
14z"/>
<path d="M2013 7013 c9 -2 23 -2 30 0 6 3 -1 5 -18 5 -16 0 -22 -2 -12 -5z"/>
<path d="M8491 6986 c2 -2 20 -6 39 -10 25 -4 31 -3 20 4 -14 9 -69 15 -59 6z"/>
<path d="M810 6922 c0 -12 34 -42 48 -42 6 0 0 11 -14 25 -26 27 -34 30 -34
17z"/>
<path d="M903 6853 c-10 -4 -9 -8 1 -19 17 -16 46 -19 46 -4 0 13 -32 28 -47
23z"/>
<path d="M777 6491 c-4 -17 -3 -21 5 -13 5 5 8 16 6 23 -3 8 -7 3 -11 -10z"/>
<path d="M780 6449 c0 -5 -4 -7 -10 -4 -13 8 -12 5 1 -34 6 -17 15 -31 20 -31
13 0 11 17 -2 26 -6 3 -8 17 -5 30 4 13 4 24 1 24 -3 0 -5 -5 -5 -11z"/>
<path d="M966 6364 c-5 -14 -4 -15 9 -4 17 14 19 20 6 20 -5 0 -12 -7 -15 -16z"/>
<path d="M1488 6283 c7 -3 16 -2 19 1 4 3 -2 6 -13 5 -11 0 -14 -3 -6 -6z"/>
<path d="M9207 6193 c-9 -45 20 -128 61 -175 14 -17 16 -17 28 0 12 16 12 16
11 -3 -1 -11 5 -21 15 -23 14 -3 16 1 11 15 -6 16 -5 16 11 4 16 -13 16 -10
-2 37 -11 28 -15 53 -10 54 5 2 -2 14 -16 27 -28 26 -37 23 -10 -3 8 -9 11
-16 5 -16 -5 0 -16 9 -24 20 -8 11 -16 17 -19 14 -6 -6 -42 42 -50 66 -3 8 -7
1 -11 -17z"/>
<path d="M1161 6104 c0 -11 3 -14 6 -6 3 7 2 16 -1 19 -3 4 -6 -2 -5 -13z"/>
<path d="M1961 5714 c0 -11 3 -14 6 -6 3 7 2 16 -1 19 -3 4 -6 -2 -5 -13z"/>
<path d="M1930 5679 c0 -19 4 -41 9 -48 6 -10 8 1 4 30 -7 55 -13 63 -13 18z"/>
<path d="M1961 5664 c0 -11 3 -14 6 -6 3 7 2 16 -1 19 -3 4 -6 -2 -5 -13z"/>
<path d="M1900 5505 c0 -8 -7 -15 -15 -15 -20 0 -19 -10 3 -26 26 -21 32 -17
32 21 0 19 -4 35 -10 35 -5 0 -10 -7 -10 -15z"/>
<path d="M3128 5433 c-2 -38 -2 -102 2 -143 6 -65 7 -55 8 68 1 78 0 142 -2
142 -2 0 -5 -30 -8 -67z"/>
<path d="M2385 5240 c-3 -5 -1 -10 4 -10 6 0 11 5 11 10 0 6 -2 10 -4 10 -3 0
-8 -4 -11 -10z"/>
</g>
</svg>
